<svg width="12" height="17" viewBox="0 0 12 17" fill="none" xmlns="http://www.w3.org/2000/svg">
<path d="M11.1479 14.3923V16.8093H0.44873V14.7468L5.5083 9.32202C6.01676 8.75627 6.41781 8.25854 6.71143 7.82886C7.00505 7.39201 7.21631 7.00171 7.34521 6.65796C7.48128 6.30705 7.54932 5.97404 7.54932 5.65894C7.54932 5.18628 7.47054 4.78166 7.31299 4.44507C7.15544 4.10132 6.92269 3.83634 6.61475 3.65015C6.31396 3.46395 5.94157 3.37085 5.49756 3.37085C5.0249 3.37085 4.6167 3.48543 4.27295 3.7146C3.93636 3.94377 3.67855 4.26245 3.49951 4.67065C3.32764 5.07886 3.2417 5.54077 3.2417 6.0564H0.137207C0.137207 5.12541 0.359212 4.27319 0.803223 3.49976C1.24723 2.71916 1.87386 2.09969 2.68311 1.64136C3.49235 1.17586 4.45199 0.943115 5.56201 0.943115C6.65771 0.943115 7.58154 1.12215 8.3335 1.48022C9.09261 1.83114 9.66553 2.3396 10.0522 3.00562C10.4461 3.66447 10.6431 4.45223 10.6431 5.3689C10.6431 5.88452 10.5607 6.3894 10.396 6.88354C10.2313 7.37052 9.99495 7.8575 9.68701 8.34448C9.38623 8.8243 9.021 9.31128 8.59131 9.80542C8.16162 10.2996 7.68538 10.8116 7.1626 11.3416L4.44482 14.3923H11.1479Z" fill="#8A95A7"/>
</svg>
