<svg width="28" height="28" viewBox="0 0 28 28" fill="none" xmlns="http://www.w3.org/2000/svg">
<path d="M14.165 19.0481L13.9088 18.6187L14.165 19.0481ZM13.2954 19.0481L13.5516 18.6187H13.5516L13.2954 19.0481ZM19.0192 10.949C19.0192 13.0547 18.0882 14.7673 16.968 16.0679C15.846 17.3706 14.557 18.2319 13.9088 18.6187L14.4211 19.4775C15.1189 19.0612 16.507 18.1354 17.7257 16.7205C18.9461 15.3035 20.0192 13.3681 20.0192 10.949H19.0192ZM13.7302 4.95996C16.5991 4.95996 19.0192 7.58614 19.0192 10.949H20.0192C20.0192 7.14425 17.2557 3.95996 13.7302 3.95996V4.95996ZM8.44116 10.949C8.44116 7.58614 10.8613 4.95996 13.7302 4.95996V3.95996C10.2047 3.95996 7.44116 7.14425 7.44116 10.949H8.44116ZM13.5516 18.6187C12.9033 18.2319 11.6144 17.3706 10.4924 16.0679C9.37218 14.7673 8.44116 13.0547 8.44116 10.949H7.44116C7.44116 13.3681 8.51428 15.3035 9.73469 16.7205C10.9533 18.1354 12.3415 19.0612 13.0392 19.4775L13.5516 18.6187ZM13.9088 18.6187C13.7954 18.6863 13.665 18.6863 13.5516 18.6187L13.0392 19.4775C13.4682 19.7334 13.9921 19.7334 14.4211 19.4775L13.9088 18.6187ZM15.7113 10.949C15.7113 12.2639 14.7722 13.23 13.7303 13.23V14.23C15.4288 14.23 16.7113 12.7058 16.7113 10.949H15.7113ZM13.7303 8.66794C14.7722 8.66794 15.7113 9.63399 15.7113 10.949H16.7113C16.7113 9.19209 15.4288 7.66794 13.7303 7.66794V8.66794ZM11.7493 10.949C11.7493 9.63399 12.6883 8.66794 13.7303 8.66794V7.66794C12.0318 7.66794 10.7493 9.19209 10.7493 10.949H11.7493ZM13.7303 13.23C12.6883 13.23 11.7493 12.2639 11.7493 10.949H10.7493C10.7493 12.7058 12.0318 14.23 13.7303 14.23V13.23Z" fill="white"/>
<path d="M19.9952 18.5C20.6535 18.9561 21 19.4734 21 20C21 20.5266 20.6535 21.0439 19.9952 21.5C19.3369 21.9561 18.3901 22.3348 17.25 22.5981C16.1099 22.8614 14.8165 23 13.5 23C12.1835 23 10.8901 22.8614 9.75 22.5981C8.60986 22.3348 7.66307 21.9561 7.00481 21.5C6.34655 21.0439 6 20.5266 6 20C6 19.4734 6.34655 18.9561 7.00481 18.5" stroke="white" stroke-linecap="round"/>
</svg>
