<svg width="49" height="49" viewBox="0 0 49 49" fill="none" xmlns="http://www.w3.org/2000/svg">
<path d="M8.16675 20.4167L7.45964 21.1238L6.75253 20.4167L7.45964 19.7096L8.16675 20.4167ZM41.8334 36.75C41.8334 37.3023 41.3857 37.75 40.8334 37.75C40.2811 37.75 39.8334 37.3023 39.8334 36.75L41.8334 36.75ZM17.668 31.3321L7.45964 21.1238L8.87385 19.7096L19.0822 29.9179L17.668 31.3321ZM7.45964 19.7096L17.668 9.50123L19.0822 10.9154L8.87385 21.1238L7.45964 19.7096ZM8.16675 19.4167L34.8334 19.4167L34.8334 21.4167L8.16675 21.4167L8.16675 19.4167ZM41.8334 26.4167L41.8334 36.75L39.8334 36.75L39.8334 26.4167L41.8334 26.4167ZM34.8334 19.4167C38.6994 19.4167 41.8334 22.5507 41.8334 26.4167L39.8334 26.4167C39.8334 23.6552 37.5948 21.4167 34.8334 21.4167L34.8334 19.4167Z" fill="white"/>
</svg>
