<svg width="96" height="96" viewBox="0 0 96 96" fill="none" xmlns="http://www.w3.org/2000/svg">
<path d="M80 48V80C80 81.8856 80 82.8284 79.4142 83.4142C78.8284 84 77.8856 84 76 84H22C19.1716 84 17.7574 84 16.8787 83.1213C16 82.2426 16 80.8284 16 78V70C16 67.1716 16 65.7574 16.8787 64.8787C17.7574 64 19.1716 64 22 64H76C77.8856 64 78.8284 64 79.4142 63.4142C80 62.8284 80 61.8856 80 60V16C80 14.1144 80 13.1716 79.4142 12.5858C78.8284 12 77.8856 12 76 12H20C18.1144 12 17.1716 12 16.5858 12.5858C16 13.1716 16 14.1144 16 16V74" stroke="#1C9CA7"/>
<path d="M36 32L60 32" stroke="#1C9CA7" stroke-linecap="round"/>
</svg>
