<svg width="60" height="60" viewBox="0 0 60 60" fill="none" xmlns="http://www.w3.org/2000/svg">
<path d="M50 30V48.5C50 50.3856 50 51.3284 49.4142 51.9142C48.8284 52.5 47.8856 52.5 46 52.5H16C13.1716 52.5 11.7574 52.5 10.8787 51.6213C10 50.7426 10 49.3284 10 46.5V46C10 43.1716 10 41.7574 10.8787 40.8787C11.7574 40 13.1716 40 16 40H46C47.8856 40 48.8284 40 49.4142 39.4142C50 38.8284 50 37.8856 50 36V11.5C50 9.61438 50 8.67157 49.4142 8.08579C48.8284 7.5 47.8856 7.5 46 7.5H14C12.1144 7.5 11.1716 7.5 10.5858 8.08579C10 8.67157 10 9.61438 10 11.5V46.25" stroke="white"/>
<path d="M22.5 20L37.5 20" stroke="white" stroke-linecap="round"/>
</svg>
