<svg width="205" height="62" viewBox="0 0 205 62" fill="none" xmlns="http://www.w3.org/2000/svg">
<rect width="205" height="62" rx="5" fill="#2A374A"/>
<rect x="11" y="9" width="55.6667" height="20" rx="3" fill="#455771"/>
<rect x="74.6666" y="9" width="55.6667" height="20" rx="3" fill="#455771"/>
<rect x="138.333" y="9" width="55.6667" height="20" rx="3" fill="#455771"/>
<path d="M77.1348 43.6362H78.0806C78.4149 43.6362 78.6899 43.5791 78.9058 43.4648C79.1258 43.3464 79.2887 43.1855 79.3945 42.9824C79.5046 42.7751 79.5596 42.536 79.5596 42.2651C79.5596 41.9985 79.5109 41.7679 79.4136 41.5732C79.3162 41.3743 79.1681 41.222 78.9692 41.1162C78.7746 41.0062 78.5249 40.9512 78.2202 40.9512C77.9748 40.9512 77.7484 40.9998 77.541 41.0972C77.3379 41.1945 77.175 41.3341 77.0522 41.5161C76.9338 41.6938 76.8745 41.9076 76.8745 42.1572H75.1924C75.1924 41.6579 75.3236 41.2199 75.5859 40.8433C75.8525 40.4624 76.2122 40.1641 76.665 39.9482C77.1178 39.7324 77.6235 39.6245 78.1821 39.6245C78.7915 39.6245 79.3247 39.7261 79.7817 39.9292C80.243 40.1281 80.6006 40.4222 80.8545 40.8115C81.1126 41.2008 81.2417 41.6833 81.2417 42.2588C81.2417 42.5339 81.1761 42.8089 81.0449 43.084C80.918 43.3548 80.7297 43.6003 80.48 43.8203C80.2345 44.0361 79.932 44.2118 79.5723 44.3472C79.2168 44.4784 78.8084 44.5439 78.3472 44.5439H77.1348V43.6362ZM77.1348 44.9312V44.0361H78.3472C78.8677 44.0361 79.3184 44.0975 79.6992 44.2202C80.0843 44.3387 80.4017 44.508 80.6514 44.728C80.901 44.9438 81.0851 45.1956 81.2036 45.4834C81.3263 45.7712 81.3877 46.0801 81.3877 46.4102C81.3877 46.8418 81.3073 47.2269 81.1465 47.5654C80.9857 47.8997 80.7593 48.1833 80.4673 48.416C80.1795 48.6488 79.841 48.8265 79.4517 48.9492C79.0623 49.0677 78.6413 49.127 78.1885 49.127C77.7949 49.127 77.4119 49.0741 77.0396 48.9683C76.6714 48.8582 76.3392 48.6953 76.043 48.4795C75.7467 48.2594 75.5119 47.9844 75.3384 47.6543C75.1649 47.32 75.0781 46.9328 75.0781 46.4927H76.7603C76.7603 46.7466 76.8216 46.973 76.9443 47.1719C77.0713 47.3708 77.2448 47.5273 77.4648 47.6416C77.6891 47.7516 77.9409 47.8066 78.2202 47.8066C78.5291 47.8066 78.7936 47.7516 79.0137 47.6416C79.238 47.5273 79.4093 47.3665 79.5278 47.1592C79.6463 46.9476 79.7056 46.6958 79.7056 46.4038C79.7056 46.0568 79.64 45.7754 79.5088 45.5596C79.3776 45.3438 79.1893 45.1851 78.9438 45.0835C78.7026 44.9819 78.4149 44.9312 78.0806 44.9312H77.1348ZM91.5884 45.9595H93.334C93.2874 46.5773 93.116 47.1253 92.8198 47.6035C92.5236 48.0775 92.111 48.4499 91.582 48.7207C91.0531 48.9915 90.4119 49.127 89.6587 49.127C89.0789 49.127 88.5563 49.0254 88.0908 48.8223C87.6296 48.6149 87.2339 48.3208 86.9038 47.9399C86.578 47.5549 86.3283 47.0936 86.1548 46.5562C85.9813 46.0145 85.8945 45.4072 85.8945 44.7344V44.0298C85.8945 43.3569 85.9834 42.7497 86.1611 42.208C86.3389 41.6663 86.5928 41.2051 86.9229 40.8242C87.2572 40.4391 87.6571 40.1429 88.1226 39.9355C88.5923 39.7282 89.117 39.6245 89.6968 39.6245C90.45 39.6245 91.0869 39.7642 91.6074 40.0435C92.1279 40.3185 92.5321 40.6973 92.8198 41.1797C93.1076 41.6621 93.2811 42.2165 93.3403 42.8428H91.5947C91.5609 42.4535 91.4762 42.1234 91.3408 41.8525C91.2096 41.5817 91.0107 41.3765 90.7441 41.2368C90.4818 41.0929 90.1326 41.021 89.6968 41.021C89.3582 41.021 89.0599 41.0845 88.8018 41.2114C88.5479 41.3384 88.3363 41.5288 88.167 41.7827C87.9977 42.0324 87.8708 42.3455 87.7861 42.7222C87.7015 43.0946 87.6592 43.5262 87.6592 44.0171V44.7344C87.6592 45.2041 87.6973 45.6252 87.7734 45.9976C87.8496 46.37 87.9681 46.6852 88.1289 46.9434C88.2897 47.2015 88.4971 47.3983 88.751 47.5337C89.0049 47.6691 89.3075 47.7368 89.6587 47.7368C90.0861 47.7368 90.4331 47.6691 90.6997 47.5337C90.9705 47.3983 91.1758 47.1994 91.3154 46.937C91.4593 46.6746 91.5503 46.3488 91.5884 45.9595ZM94.2607 45.6357V45.5024C94.2607 44.9989 94.3327 44.5355 94.4766 44.1123C94.6204 43.6849 94.8299 43.3146 95.105 43.0015C95.38 42.6883 95.7165 42.445 96.1143 42.2715C96.512 42.0938 96.9648 42.0049 97.4727 42.0049C97.9889 42.0049 98.446 42.0938 98.8438 42.2715C99.2458 42.445 99.5843 42.6883 99.8594 43.0015C100.134 43.3146 100.344 43.6849 100.488 44.1123C100.632 44.5355 100.704 44.9989 100.704 45.5024V45.6357C100.704 46.1351 100.632 46.5985 100.488 47.0259C100.344 47.4491 100.134 47.8193 99.8594 48.1367C99.5843 48.4499 99.2479 48.6932 98.8501 48.8667C98.4523 49.0402 97.9974 49.127 97.4854 49.127C96.9775 49.127 96.5226 49.0402 96.1206 48.8667C95.7186 48.6932 95.38 48.4499 95.105 48.1367C94.8299 47.8193 94.6204 47.4491 94.4766 47.0259C94.3327 46.5985 94.2607 46.1351 94.2607 45.6357ZM95.9365 45.5024V45.6357C95.9365 45.9362 95.9661 46.2176 96.0254 46.48C96.0846 46.7424 96.1756 46.973 96.2983 47.1719C96.4211 47.3708 96.5798 47.5273 96.7744 47.6416C96.9733 47.7516 97.2103 47.8066 97.4854 47.8066C97.7562 47.8066 97.9889 47.7516 98.1836 47.6416C98.3783 47.5273 98.5369 47.3708 98.6597 47.1719C98.7866 46.973 98.8797 46.7424 98.939 46.48C98.9982 46.2176 99.0278 45.9362 99.0278 45.6357V45.5024C99.0278 45.2062 98.9982 44.929 98.939 44.6709C98.8797 44.4085 98.7866 44.1779 98.6597 43.979C98.5369 43.7759 98.3761 43.6172 98.1772 43.5029C97.9826 43.3844 97.7477 43.3252 97.4727 43.3252C97.2018 43.3252 96.9691 43.3844 96.7744 43.5029C96.5798 43.6172 96.4211 43.7759 96.2983 43.979C96.1756 44.1779 96.0846 44.4085 96.0254 44.6709C95.9661 44.929 95.9365 45.2062 95.9365 45.5024ZM103.7 39.25V49H102.018V39.25H103.7ZM109.387 47.3687V42.1318H111.076V49H109.489L109.387 47.3687ZM109.603 45.9468L110.124 45.9341C110.124 46.3953 110.073 46.8206 109.971 47.21C109.87 47.5993 109.711 47.9378 109.495 48.2256C109.284 48.5091 109.015 48.7313 108.689 48.8921C108.363 49.0487 107.978 49.127 107.534 49.127C107.195 49.127 106.886 49.0804 106.607 48.9873C106.328 48.89 106.086 48.7397 105.883 48.5366C105.684 48.3293 105.53 48.0648 105.42 47.7432C105.31 47.4173 105.255 47.0259 105.255 46.5688V42.1318H106.931V46.5815C106.931 46.8101 106.956 47.0005 107.007 47.1528C107.062 47.3052 107.136 47.43 107.229 47.5273C107.326 47.6204 107.438 47.6882 107.565 47.7305C107.697 47.7686 107.836 47.7876 107.984 47.7876C108.391 47.7876 108.71 47.7072 108.943 47.5464C109.18 47.3813 109.349 47.1613 109.451 46.8862C109.552 46.6069 109.603 46.2938 109.603 45.9468ZM114.23 43.541V49H112.555V42.1318H114.135L114.23 43.541ZM113.983 45.3184H113.469C113.469 44.8402 113.526 44.4001 113.64 43.998C113.759 43.596 113.932 43.2469 114.161 42.9507C114.389 42.6502 114.671 42.4175 115.005 42.2524C115.343 42.0874 115.735 42.0049 116.179 42.0049C116.488 42.0049 116.772 42.0514 117.03 42.1445C117.288 42.2334 117.51 42.3752 117.696 42.5698C117.887 42.7603 118.033 43.0099 118.134 43.3188C118.236 43.6235 118.287 43.9896 118.287 44.417V49H116.611V44.5884C116.611 44.2668 116.564 44.015 116.471 43.833C116.382 43.651 116.253 43.5241 116.084 43.4521C115.915 43.376 115.712 43.3379 115.475 43.3379C115.212 43.3379 114.986 43.3908 114.795 43.4966C114.609 43.5981 114.455 43.7399 114.332 43.9219C114.214 44.1038 114.125 44.3133 114.065 44.5503C114.01 44.7873 113.983 45.0433 113.983 45.3184ZM118.16 45.0073L117.468 45.1343C117.472 44.7026 117.531 44.2985 117.646 43.9219C117.76 43.541 117.927 43.2088 118.147 42.9253C118.371 42.6375 118.648 42.4132 118.979 42.2524C119.313 42.0874 119.698 42.0049 120.134 42.0049C120.472 42.0049 120.777 42.0535 121.048 42.1509C121.323 42.244 121.558 42.3942 121.752 42.6016C121.947 42.8047 122.095 43.0692 122.197 43.395C122.303 43.7209 122.355 44.1187 122.355 44.5884V49H120.667V44.582C120.667 44.2477 120.62 43.9917 120.527 43.814C120.438 43.6362 120.309 43.5135 120.14 43.4458C119.971 43.3739 119.772 43.3379 119.543 43.3379C119.311 43.3379 119.108 43.3823 118.934 43.4712C118.765 43.5558 118.621 43.6743 118.502 43.8267C118.388 43.979 118.301 44.1567 118.242 44.3599C118.187 44.5588 118.16 44.7746 118.16 45.0073ZM125.504 43.5981V49H123.828V42.1318H125.402L125.504 43.5981ZM125.237 45.3184H124.742C124.746 44.819 124.814 44.3662 124.945 43.96C125.076 43.5537 125.261 43.2046 125.498 42.9126C125.739 42.6206 126.024 42.3963 126.354 42.2397C126.685 42.0832 127.053 42.0049 127.459 42.0049C127.789 42.0049 128.087 42.0514 128.354 42.1445C128.621 42.2376 128.849 42.3857 129.04 42.5889C129.234 42.792 129.382 43.0586 129.484 43.3887C129.59 43.7145 129.643 44.1165 129.643 44.5947V49H127.954V44.582C127.954 44.2689 127.908 44.0213 127.814 43.8394C127.726 43.6574 127.594 43.5283 127.421 43.4521C127.252 43.376 127.042 43.3379 126.792 43.3379C126.534 43.3379 126.308 43.3908 126.113 43.4966C125.923 43.5981 125.762 43.7399 125.631 43.9219C125.504 44.1038 125.407 44.3133 125.339 44.5503C125.271 44.7873 125.237 45.0433 125.237 45.3184Z" fill="white"/>
</svg>
