<svg width="205" height="62" viewBox="0 0 205 62" fill="none" xmlns="http://www.w3.org/2000/svg">
<rect width="205" height="62" rx="5" fill="#2A374A"/>
<rect x="11" y="9" width="39.75" height="20" rx="3" fill="#455771"/>
<rect x="58.75" y="9" width="39.75" height="20" rx="3" fill="#455771"/>
<rect x="106.5" y="9" width="39.75" height="20" rx="3" fill="#455771"/>
<rect x="154.25" y="9" width="39.75" height="20" rx="3" fill="#455771"/>
<path d="M82.5811 45.6294V46.9497H75.9224L75.8525 45.9341L79.769 39.7578H81.1084L79.6611 42.2144L77.5601 45.6294H82.5811ZM81.4829 39.7578V49H79.8008V39.7578H81.4829ZM89.7349 47.8066C89.9718 47.8066 90.1834 47.7601 90.3696 47.667C90.5558 47.5739 90.7039 47.4427 90.814 47.2734C90.9282 47.1042 90.9896 46.9074 90.998 46.6831H92.5786C92.5701 47.1486 92.439 47.5654 92.1851 47.9336C91.9312 48.3018 91.5926 48.5938 91.1694 48.8096C90.7505 49.0212 90.2808 49.127 89.7603 49.127C89.2313 49.127 88.77 49.0381 88.3765 48.8604C87.9829 48.6826 87.6549 48.4351 87.3926 48.1177C87.1344 47.8003 86.9398 47.4321 86.8086 47.0132C86.6816 46.5942 86.6182 46.1457 86.6182 45.6675V45.4644C86.6182 44.9862 86.6816 44.5376 86.8086 44.1187C86.9398 43.6997 87.1344 43.3315 87.3926 43.0142C87.6549 42.6968 87.9829 42.4492 88.3765 42.2715C88.77 42.0938 89.2292 42.0049 89.7539 42.0049C90.3083 42.0049 90.7949 42.1128 91.2139 42.3286C91.637 42.5444 91.9671 42.8491 92.2041 43.2427C92.4453 43.6362 92.5701 44.0996 92.5786 44.6328H90.998C90.9896 44.3874 90.9346 44.1673 90.833 43.9727C90.7314 43.778 90.5876 43.6214 90.4014 43.5029C90.2152 43.3844 89.9888 43.3252 89.7222 43.3252C89.4386 43.3252 89.2017 43.3844 89.0112 43.5029C88.825 43.6214 88.679 43.7843 88.5732 43.9917C88.4717 44.1948 88.3997 44.4233 88.3574 44.6772C88.3193 44.9269 88.3003 45.1893 88.3003 45.4644V45.6675C88.3003 45.9468 88.3193 46.2134 88.3574 46.4673C88.3997 46.7212 88.4717 46.9497 88.5732 47.1528C88.679 47.3517 88.825 47.5104 89.0112 47.6289C89.2017 47.7474 89.4429 47.8066 89.7349 47.8066ZM93.3975 45.6357V45.5024C93.3975 44.9989 93.4694 44.5355 93.6133 44.1123C93.7572 43.6849 93.9666 43.3146 94.2417 43.0015C94.5168 42.6883 94.8532 42.445 95.251 42.2715C95.6488 42.0938 96.1016 42.0049 96.6094 42.0049C97.1257 42.0049 97.5827 42.0938 97.9805 42.2715C98.3825 42.445 98.721 42.6883 98.9961 43.0015C99.2712 43.3146 99.4806 43.6849 99.6245 44.1123C99.7684 44.5355 99.8403 44.9989 99.8403 45.5024V45.6357C99.8403 46.1351 99.7684 46.5985 99.6245 47.0259C99.4806 47.4491 99.2712 47.8193 98.9961 48.1367C98.721 48.4499 98.3846 48.6932 97.9868 48.8667C97.589 49.0402 97.1341 49.127 96.6221 49.127C96.1143 49.127 95.6593 49.0402 95.2573 48.8667C94.8553 48.6932 94.5168 48.4499 94.2417 48.1367C93.9666 47.8193 93.7572 47.4491 93.6133 47.0259C93.4694 46.5985 93.3975 46.1351 93.3975 45.6357ZM95.0732 45.5024V45.6357C95.0732 45.9362 95.1029 46.2176 95.1621 46.48C95.2214 46.7424 95.3123 46.973 95.4351 47.1719C95.5578 47.3708 95.7165 47.5273 95.9111 47.6416C96.11 47.7516 96.347 47.8066 96.6221 47.8066C96.8929 47.8066 97.1257 47.7516 97.3203 47.6416C97.515 47.5273 97.6737 47.3708 97.7964 47.1719C97.9233 46.973 98.0164 46.7424 98.0757 46.48C98.1349 46.2176 98.1646 45.9362 98.1646 45.6357V45.5024C98.1646 45.2062 98.1349 44.929 98.0757 44.6709C98.0164 44.4085 97.9233 44.1779 97.7964 43.979C97.6737 43.7759 97.5129 43.6172 97.314 43.5029C97.1193 43.3844 96.8844 43.3252 96.6094 43.3252C96.3385 43.3252 96.1058 43.3844 95.9111 43.5029C95.7165 43.6172 95.5578 43.7759 95.4351 43.979C95.3123 44.1779 95.2214 44.4085 95.1621 44.6709C95.1029 44.929 95.0732 45.2062 95.0732 45.5024ZM102.836 39.25V49H101.154V39.25H102.836ZM108.524 47.3687V42.1318H110.212V49H108.625L108.524 47.3687ZM108.74 45.9468L109.26 45.9341C109.26 46.3953 109.209 46.8206 109.108 47.21C109.006 47.5993 108.848 47.9378 108.632 48.2256C108.42 48.5091 108.152 48.7313 107.826 48.8921C107.5 49.0487 107.115 49.127 106.67 49.127C106.332 49.127 106.023 49.0804 105.744 48.9873C105.464 48.89 105.223 48.7397 105.02 48.5366C104.821 48.3293 104.667 48.0648 104.557 47.7432C104.447 47.4173 104.392 47.0259 104.392 46.5688V42.1318H106.067V46.5815C106.067 46.8101 106.093 47.0005 106.144 47.1528C106.199 47.3052 106.273 47.43 106.366 47.5273C106.463 47.6204 106.575 47.6882 106.702 47.7305C106.833 47.7686 106.973 47.7876 107.121 47.7876C107.527 47.7876 107.847 47.7072 108.08 47.5464C108.317 47.3813 108.486 47.1613 108.587 46.8862C108.689 46.6069 108.74 46.2938 108.74 45.9468ZM113.367 43.541V49H111.691V42.1318H113.272L113.367 43.541ZM113.12 45.3184H112.605C112.605 44.8402 112.663 44.4001 112.777 43.998C112.895 43.596 113.069 43.2469 113.297 42.9507C113.526 42.6502 113.807 42.4175 114.142 42.2524C114.48 42.0874 114.872 42.0049 115.316 42.0049C115.625 42.0049 115.908 42.0514 116.167 42.1445C116.425 42.2334 116.647 42.3752 116.833 42.5698C117.023 42.7603 117.169 43.0099 117.271 43.3188C117.373 43.6235 117.423 43.9896 117.423 44.417V49H115.748V44.5884C115.748 44.2668 115.701 44.015 115.608 43.833C115.519 43.651 115.39 43.5241 115.221 43.4521C115.051 43.376 114.848 43.3379 114.611 43.3379C114.349 43.3379 114.123 43.3908 113.932 43.4966C113.746 43.5981 113.591 43.7399 113.469 43.9219C113.35 44.1038 113.261 44.3133 113.202 44.5503C113.147 44.7873 113.12 45.0433 113.12 45.3184ZM117.296 45.0073L116.604 45.1343C116.609 44.7026 116.668 44.2985 116.782 43.9219C116.896 43.541 117.064 43.2088 117.284 42.9253C117.508 42.6375 117.785 42.4132 118.115 42.2524C118.45 42.0874 118.835 42.0049 119.271 42.0049C119.609 42.0049 119.914 42.0535 120.185 42.1509C120.46 42.244 120.694 42.3942 120.889 42.6016C121.084 42.8047 121.232 43.0692 121.333 43.395C121.439 43.7209 121.492 44.1187 121.492 44.5884V49H119.804V44.582C119.804 44.2477 119.757 43.9917 119.664 43.814C119.575 43.6362 119.446 43.5135 119.277 43.4458C119.108 43.3739 118.909 43.3379 118.68 43.3379C118.447 43.3379 118.244 43.3823 118.071 43.4712C117.902 43.5558 117.758 43.6743 117.639 43.8267C117.525 43.979 117.438 44.1567 117.379 44.3599C117.324 44.5588 117.296 44.7746 117.296 45.0073ZM124.641 43.5981V49H122.965V42.1318H124.539L124.641 43.5981ZM124.374 45.3184H123.879C123.883 44.819 123.951 44.3662 124.082 43.96C124.213 43.5537 124.397 43.2046 124.634 42.9126C124.875 42.6206 125.161 42.3963 125.491 42.2397C125.821 42.0832 126.189 42.0049 126.596 42.0049C126.926 42.0049 127.224 42.0514 127.491 42.1445C127.757 42.2376 127.986 42.3857 128.176 42.5889C128.371 42.792 128.519 43.0586 128.621 43.3887C128.726 43.7145 128.779 44.1165 128.779 44.5947V49H127.091V44.582C127.091 44.2689 127.044 44.0213 126.951 43.8394C126.862 43.6574 126.731 43.5283 126.558 43.4521C126.388 43.376 126.179 43.3379 125.929 43.3379C125.671 43.3379 125.445 43.3908 125.25 43.4966C125.06 43.5981 124.899 43.7399 124.768 43.9219C124.641 44.1038 124.543 44.3133 124.476 44.5503C124.408 44.7873 124.374 45.0433 124.374 45.3184Z" fill="white"/>
</svg>
