<svg width="205" height="62" viewBox="0 0 205 62" fill="none" xmlns="http://www.w3.org/2000/svg">
<rect width="205" height="62" rx="5" fill="#2A374A"/>
<rect x="11" y="9" width="47" height="20" rx="3" fill="#455771"/>
<rect x="67" y="9" width="127" height="20" rx="3" fill="#455771"/>
<path d="M75.6177 45.6294V46.9497H68.959L68.8892 45.9341L72.8057 39.7578H74.145L72.6978 42.2144L70.5967 45.6294H75.6177ZM74.5195 39.7578V49H72.8374V39.7578H74.5195ZM80.0547 44.3789V45.7056H76.5825V44.3789H80.0547ZM87.5322 46.4736C87.5322 47.0492 87.3968 47.5358 87.126 47.9336C86.8594 48.3271 86.4933 48.6255 86.0278 48.8286C85.5666 49.0275 85.0418 49.127 84.4536 49.127C83.8696 49.127 83.3428 49.0275 82.873 48.8286C82.4076 48.6255 82.0373 48.3271 81.7622 47.9336C81.4914 47.5358 81.356 47.0492 81.356 46.4736C81.356 46.0885 81.4321 45.7394 81.5845 45.4263C81.741 45.1131 81.9569 44.8444 82.2319 44.6201C82.507 44.3916 82.8328 44.2181 83.2095 44.0996C83.5861 43.9769 83.9966 43.9155 84.4409 43.9155C85.0334 43.9155 85.5623 44.0234 86.0278 44.2393C86.4976 44.4508 86.8657 44.7492 87.1323 45.1343C87.3989 45.5151 87.5322 45.9616 87.5322 46.4736ZM85.8438 46.3721C85.8438 46.0758 85.7845 45.8198 85.666 45.604C85.5518 45.384 85.3888 45.2147 85.1772 45.0962C84.9657 44.9777 84.7202 44.9185 84.4409 44.9185C84.1574 44.9185 83.9098 44.9777 83.6982 45.0962C83.4909 45.2147 83.328 45.384 83.2095 45.604C83.0952 45.8198 83.0381 46.0758 83.0381 46.3721C83.0381 46.6725 83.0952 46.9307 83.2095 47.1465C83.328 47.3581 83.493 47.521 83.7046 47.6353C83.9162 47.7495 84.1659 47.8066 84.4536 47.8066C84.7414 47.8066 84.9889 47.7495 85.1963 47.6353C85.4036 47.521 85.5623 47.3581 85.6724 47.1465C85.7866 46.9307 85.8438 46.6725 85.8438 46.3721ZM87.3291 42.1953C87.3291 42.6608 87.2064 43.0755 86.9609 43.4395C86.7155 43.7992 86.3748 44.0806 85.939 44.2837C85.5073 44.4868 85.0122 44.5884 84.4536 44.5884C83.895 44.5884 83.3957 44.4868 82.9556 44.2837C82.5197 44.0806 82.1769 43.7992 81.9272 43.4395C81.6818 43.0755 81.5591 42.6608 81.5591 42.1953C81.5591 41.6452 81.6839 41.1797 81.9336 40.7988C82.1833 40.4137 82.5239 40.1217 82.9556 39.9229C83.3914 39.724 83.8866 39.6245 84.4409 39.6245C85.0037 39.6245 85.5031 39.724 85.939 39.9229C86.3748 40.1217 86.7155 40.4137 86.9609 40.7988C87.2064 41.1797 87.3291 41.6452 87.3291 42.1953ZM85.6533 42.2651C85.6533 42.0028 85.6047 41.7743 85.5073 41.5796C85.41 41.3807 85.2703 41.2262 85.0884 41.1162C84.9106 41.0062 84.6948 40.9512 84.4409 40.9512C84.1955 40.9512 83.9839 41.0041 83.8062 41.1099C83.6284 41.2157 83.4909 41.368 83.3936 41.5669C83.2962 41.7616 83.2476 41.9943 83.2476 42.2651C83.2476 42.5317 83.2962 42.7645 83.3936 42.9634C83.4909 43.1623 83.6284 43.3188 83.8062 43.4331C83.9881 43.5431 84.2039 43.5981 84.4536 43.5981C84.7033 43.5981 84.917 43.5431 85.0947 43.4331C85.2725 43.3188 85.41 43.1623 85.5073 42.9634C85.6047 42.7645 85.6533 42.5317 85.6533 42.2651ZM97.6885 45.9595H99.4341C99.3875 46.5773 99.2161 47.1253 98.9199 47.6035C98.6237 48.0775 98.2111 48.4499 97.6821 48.7207C97.1532 48.9915 96.512 49.127 95.7588 49.127C95.179 49.127 94.6564 49.0254 94.1909 48.8223C93.7297 48.6149 93.334 48.3208 93.0039 47.9399C92.6781 47.5549 92.4284 47.0936 92.2549 46.5562C92.0814 46.0145 91.9946 45.4072 91.9946 44.7344V44.0298C91.9946 43.3569 92.0835 42.7497 92.2612 42.208C92.439 41.6663 92.6929 41.2051 93.0229 40.8242C93.3573 40.4391 93.7572 40.1429 94.2227 39.9355C94.6924 39.7282 95.2171 39.6245 95.7969 39.6245C96.5501 39.6245 97.187 39.7642 97.7075 40.0435C98.228 40.3185 98.6322 40.6973 98.9199 41.1797C99.2077 41.6621 99.3812 42.2165 99.4404 42.8428H97.6948C97.661 42.4535 97.5763 42.1234 97.4409 41.8525C97.3097 41.5817 97.1108 41.3765 96.8442 41.2368C96.5819 41.0929 96.2327 41.021 95.7969 41.021C95.4583 41.021 95.16 41.0845 94.9019 41.2114C94.6479 41.3384 94.4364 41.5288 94.2671 41.7827C94.0978 42.0324 93.9709 42.3455 93.8862 42.7222C93.8016 43.0946 93.7593 43.5262 93.7593 44.0171V44.7344C93.7593 45.2041 93.7974 45.6252 93.8735 45.9976C93.9497 46.37 94.0682 46.6852 94.229 46.9434C94.3898 47.2015 94.5972 47.3983 94.8511 47.5337C95.105 47.6691 95.4076 47.7368 95.7588 47.7368C96.1862 47.7368 96.5332 47.6691 96.7998 47.5337C97.0706 47.3983 97.2759 47.1994 97.4155 46.937C97.5594 46.6746 97.6504 46.3488 97.6885 45.9595ZM100.361 45.6357V45.5024C100.361 44.9989 100.433 44.5355 100.577 44.1123C100.721 43.6849 100.93 43.3146 101.205 43.0015C101.48 42.6883 101.817 42.445 102.214 42.2715C102.612 42.0938 103.065 42.0049 103.573 42.0049C104.089 42.0049 104.546 42.0938 104.944 42.2715C105.346 42.445 105.684 42.6883 105.959 43.0015C106.235 43.3146 106.444 43.6849 106.588 44.1123C106.732 44.5355 106.804 44.9989 106.804 45.5024V45.6357C106.804 46.1351 106.732 46.5985 106.588 47.0259C106.444 47.4491 106.235 47.8193 105.959 48.1367C105.684 48.4499 105.348 48.6932 104.95 48.8667C104.552 49.0402 104.097 49.127 103.585 49.127C103.078 49.127 102.623 49.0402 102.221 48.8667C101.819 48.6932 101.48 48.4499 101.205 48.1367C100.93 47.8193 100.721 47.4491 100.577 47.0259C100.433 46.5985 100.361 46.1351 100.361 45.6357ZM102.037 45.5024V45.6357C102.037 45.9362 102.066 46.2176 102.125 46.48C102.185 46.7424 102.276 46.973 102.398 47.1719C102.521 47.3708 102.68 47.5273 102.875 47.6416C103.073 47.7516 103.31 47.8066 103.585 47.8066C103.856 47.8066 104.089 47.7516 104.284 47.6416C104.478 47.5273 104.637 47.3708 104.76 47.1719C104.887 46.973 104.98 46.7424 105.039 46.48C105.098 46.2176 105.128 45.9362 105.128 45.6357V45.5024C105.128 45.2062 105.098 44.929 105.039 44.6709C104.98 44.4085 104.887 44.1779 104.76 43.979C104.637 43.7759 104.476 43.6172 104.277 43.5029C104.083 43.3844 103.848 43.3252 103.573 43.3252C103.302 43.3252 103.069 43.3844 102.875 43.5029C102.68 43.6172 102.521 43.7759 102.398 43.979C102.276 44.1779 102.185 44.4085 102.125 44.6709C102.066 44.929 102.037 45.2062 102.037 45.5024ZM109.8 39.25V49H108.118V39.25H109.8ZM115.487 47.3687V42.1318H117.176V49H115.589L115.487 47.3687ZM115.703 45.9468L116.224 45.9341C116.224 46.3953 116.173 46.8206 116.071 47.21C115.97 47.5993 115.811 47.9378 115.595 48.2256C115.384 48.5091 115.115 48.7313 114.789 48.8921C114.463 49.0487 114.078 49.127 113.634 49.127C113.295 49.127 112.986 49.0804 112.707 48.9873C112.428 48.89 112.187 48.7397 111.983 48.5366C111.785 48.3293 111.63 48.0648 111.52 47.7432C111.41 47.4173 111.355 47.0259 111.355 46.5688V42.1318H113.031V46.5815C113.031 46.8101 113.056 47.0005 113.107 47.1528C113.162 47.3052 113.236 47.43 113.329 47.5273C113.426 47.6204 113.539 47.6882 113.666 47.7305C113.797 47.7686 113.936 47.7876 114.084 47.7876C114.491 47.7876 114.81 47.7072 115.043 47.5464C115.28 47.3813 115.449 47.1613 115.551 46.8862C115.652 46.6069 115.703 46.2938 115.703 45.9468ZM120.331 43.541V49H118.655V42.1318H120.235L120.331 43.541ZM120.083 45.3184H119.569C119.569 44.8402 119.626 44.4001 119.74 43.998C119.859 43.596 120.032 43.2469 120.261 42.9507C120.489 42.6502 120.771 42.4175 121.105 42.2524C121.444 42.0874 121.835 42.0049 122.279 42.0049C122.588 42.0049 122.872 42.0514 123.13 42.1445C123.388 42.2334 123.61 42.3752 123.796 42.5698C123.987 42.7603 124.133 43.0099 124.234 43.3188C124.336 43.6235 124.387 43.9896 124.387 44.417V49H122.711V44.5884C122.711 44.2668 122.664 44.015 122.571 43.833C122.482 43.651 122.353 43.5241 122.184 43.4521C122.015 43.376 121.812 43.3379 121.575 43.3379C121.312 43.3379 121.086 43.3908 120.896 43.4966C120.709 43.5981 120.555 43.7399 120.432 43.9219C120.314 44.1038 120.225 44.3133 120.166 44.5503C120.111 44.7873 120.083 45.0433 120.083 45.3184ZM124.26 45.0073L123.568 45.1343C123.572 44.7026 123.631 44.2985 123.746 43.9219C123.86 43.541 124.027 43.2088 124.247 42.9253C124.471 42.6375 124.749 42.4132 125.079 42.2524C125.413 42.0874 125.798 42.0049 126.234 42.0049C126.572 42.0049 126.877 42.0535 127.148 42.1509C127.423 42.244 127.658 42.3942 127.853 42.6016C128.047 42.8047 128.195 43.0692 128.297 43.395C128.403 43.7209 128.456 44.1187 128.456 44.5884V49H126.767V44.582C126.767 44.2477 126.721 43.9917 126.627 43.814C126.539 43.6362 126.41 43.5135 126.24 43.4458C126.071 43.3739 125.872 43.3379 125.644 43.3379C125.411 43.3379 125.208 43.3823 125.034 43.4712C124.865 43.5558 124.721 43.6743 124.603 43.8267C124.488 43.979 124.402 44.1567 124.342 44.3599C124.287 44.5588 124.26 44.7746 124.26 45.0073ZM131.604 43.5981V49H129.928V42.1318H131.502L131.604 43.5981ZM131.337 45.3184H130.842C130.847 44.819 130.914 44.3662 131.045 43.96C131.177 43.5537 131.361 43.2046 131.598 42.9126C131.839 42.6206 132.125 42.3963 132.455 42.2397C132.785 42.0832 133.153 42.0049 133.559 42.0049C133.889 42.0049 134.188 42.0514 134.454 42.1445C134.721 42.2376 134.949 42.3857 135.14 42.5889C135.334 42.792 135.482 43.0586 135.584 43.3887C135.69 43.7145 135.743 44.1165 135.743 44.5947V49H134.054V44.582C134.054 44.2689 134.008 44.0213 133.915 43.8394C133.826 43.6574 133.694 43.5283 133.521 43.4521C133.352 43.376 133.142 43.3379 132.893 43.3379C132.634 43.3379 132.408 43.3908 132.213 43.4966C132.023 43.5981 131.862 43.7399 131.731 43.9219C131.604 44.1038 131.507 44.3133 131.439 44.5503C131.371 44.7873 131.337 45.0433 131.337 45.3184Z" fill="white"/>
</svg>
