<svg width="205" height="62" viewBox="0 0 205 62" fill="none" xmlns="http://www.w3.org/2000/svg">
<rect width="205" height="62" rx="5" fill="#2A374A"/>
<rect x="11" y="9" width="127" height="20" rx="3" fill="#455771"/>
<rect x="147" y="9" width="47" height="20" rx="3" fill="#455771"/>
<path d="M75.332 46.4736C75.332 47.0492 75.1966 47.5358 74.9258 47.9336C74.6592 48.3271 74.2931 48.6255 73.8276 48.8286C73.3664 49.0275 72.8416 49.127 72.2534 49.127C71.6694 49.127 71.1426 49.0275 70.6729 48.8286C70.2074 48.6255 69.8371 48.3271 69.562 47.9336C69.2912 47.5358 69.1558 47.0492 69.1558 46.4736C69.1558 46.0885 69.2319 45.7394 69.3843 45.4263C69.5409 45.1131 69.7567 44.8444 70.0317 44.6201C70.3068 44.3916 70.6326 44.2181 71.0093 44.0996C71.3859 43.9769 71.7964 43.9155 72.2407 43.9155C72.8332 43.9155 73.3621 44.0234 73.8276 44.2393C74.2974 44.4508 74.6655 44.7492 74.9321 45.1343C75.1987 45.5151 75.332 45.9616 75.332 46.4736ZM73.6436 46.3721C73.6436 46.0758 73.5843 45.8198 73.4658 45.604C73.3516 45.384 73.1886 45.2147 72.9771 45.0962C72.7655 44.9777 72.52 44.9185 72.2407 44.9185C71.9572 44.9185 71.7096 44.9777 71.498 45.0962C71.2907 45.2147 71.1278 45.384 71.0093 45.604C70.895 45.8198 70.8379 46.0758 70.8379 46.3721C70.8379 46.6725 70.895 46.9307 71.0093 47.1465C71.1278 47.3581 71.2928 47.521 71.5044 47.6353C71.716 47.7495 71.9657 47.8066 72.2534 47.8066C72.5412 47.8066 72.7887 47.7495 72.9961 47.6353C73.2035 47.521 73.3621 47.3581 73.4722 47.1465C73.5864 46.9307 73.6436 46.6725 73.6436 46.3721ZM75.1289 42.1953C75.1289 42.6608 75.0062 43.0755 74.7607 43.4395C74.5153 43.7992 74.1746 44.0806 73.7388 44.2837C73.3071 44.4868 72.812 44.5884 72.2534 44.5884C71.6948 44.5884 71.1955 44.4868 70.7554 44.2837C70.3195 44.0806 69.9767 43.7992 69.7271 43.4395C69.4816 43.0755 69.3589 42.6608 69.3589 42.1953C69.3589 41.6452 69.4837 41.1797 69.7334 40.7988C69.9831 40.4137 70.3237 40.1217 70.7554 39.9229C71.1912 39.724 71.6864 39.6245 72.2407 39.6245C72.8035 39.6245 73.3029 39.724 73.7388 39.9229C74.1746 40.1217 74.5153 40.4137 74.7607 40.7988C75.0062 41.1797 75.1289 41.6452 75.1289 42.1953ZM73.4531 42.2651C73.4531 42.0028 73.4045 41.7743 73.3071 41.5796C73.2098 41.3807 73.0701 41.2262 72.8882 41.1162C72.7104 41.0062 72.4946 40.9512 72.2407 40.9512C71.9953 40.9512 71.7837 41.0041 71.606 41.1099C71.4282 41.2157 71.2907 41.368 71.1934 41.5669C71.096 41.7616 71.0474 41.9943 71.0474 42.2651C71.0474 42.5317 71.096 42.7645 71.1934 42.9634C71.2907 43.1623 71.4282 43.3188 71.606 43.4331C71.7879 43.5431 72.0037 43.5981 72.2534 43.5981C72.5031 43.5981 72.7168 43.5431 72.8945 43.4331C73.0723 43.3188 73.2098 43.1623 73.3071 42.9634C73.4045 42.7645 73.4531 42.5317 73.4531 42.2651ZM80.0547 44.3789V45.7056H76.5825V44.3789H80.0547ZM87.8179 45.6294V46.9497H81.1592L81.0894 45.9341L85.0059 39.7578H86.3452L84.8979 42.2144L82.7969 45.6294H87.8179ZM86.7197 39.7578V49H85.0376V39.7578H86.7197ZM97.6885 45.9595H99.4341C99.3875 46.5773 99.2161 47.1253 98.9199 47.6035C98.6237 48.0775 98.2111 48.4499 97.6821 48.7207C97.1532 48.9915 96.512 49.127 95.7588 49.127C95.179 49.127 94.6564 49.0254 94.1909 48.8223C93.7297 48.6149 93.334 48.3208 93.0039 47.9399C92.6781 47.5549 92.4284 47.0936 92.2549 46.5562C92.0814 46.0145 91.9946 45.4072 91.9946 44.7344V44.0298C91.9946 43.3569 92.0835 42.7497 92.2612 42.208C92.439 41.6663 92.6929 41.2051 93.0229 40.8242C93.3573 40.4391 93.7572 40.1429 94.2227 39.9355C94.6924 39.7282 95.2171 39.6245 95.7969 39.6245C96.5501 39.6245 97.187 39.7642 97.7075 40.0435C98.228 40.3185 98.6322 40.6973 98.9199 41.1797C99.2077 41.6621 99.3812 42.2165 99.4404 42.8428H97.6948C97.661 42.4535 97.5763 42.1234 97.4409 41.8525C97.3097 41.5817 97.1108 41.3765 96.8442 41.2368C96.5819 41.0929 96.2327 41.021 95.7969 41.021C95.4583 41.021 95.16 41.0845 94.9019 41.2114C94.6479 41.3384 94.4364 41.5288 94.2671 41.7827C94.0978 42.0324 93.9709 42.3455 93.8862 42.7222C93.8016 43.0946 93.7593 43.5262 93.7593 44.0171V44.7344C93.7593 45.2041 93.7974 45.6252 93.8735 45.9976C93.9497 46.37 94.0682 46.6852 94.229 46.9434C94.3898 47.2015 94.5972 47.3983 94.8511 47.5337C95.105 47.6691 95.4076 47.7368 95.7588 47.7368C96.1862 47.7368 96.5332 47.6691 96.7998 47.5337C97.0706 47.3983 97.2759 47.1994 97.4155 46.937C97.5594 46.6746 97.6504 46.3488 97.6885 45.9595ZM100.361 45.6357V45.5024C100.361 44.9989 100.433 44.5355 100.577 44.1123C100.721 43.6849 100.93 43.3146 101.205 43.0015C101.48 42.6883 101.817 42.445 102.214 42.2715C102.612 42.0938 103.065 42.0049 103.573 42.0049C104.089 42.0049 104.546 42.0938 104.944 42.2715C105.346 42.445 105.684 42.6883 105.959 43.0015C106.235 43.3146 106.444 43.6849 106.588 44.1123C106.732 44.5355 106.804 44.9989 106.804 45.5024V45.6357C106.804 46.1351 106.732 46.5985 106.588 47.0259C106.444 47.4491 106.235 47.8193 105.959 48.1367C105.684 48.4499 105.348 48.6932 104.95 48.8667C104.552 49.0402 104.097 49.127 103.585 49.127C103.078 49.127 102.623 49.0402 102.221 48.8667C101.819 48.6932 101.48 48.4499 101.205 48.1367C100.93 47.8193 100.721 47.4491 100.577 47.0259C100.433 46.5985 100.361 46.1351 100.361 45.6357ZM102.037 45.5024V45.6357C102.037 45.9362 102.066 46.2176 102.125 46.48C102.185 46.7424 102.276 46.973 102.398 47.1719C102.521 47.3708 102.68 47.5273 102.875 47.6416C103.073 47.7516 103.31 47.8066 103.585 47.8066C103.856 47.8066 104.089 47.7516 104.284 47.6416C104.478 47.5273 104.637 47.3708 104.76 47.1719C104.887 46.973 104.98 46.7424 105.039 46.48C105.098 46.2176 105.128 45.9362 105.128 45.6357V45.5024C105.128 45.2062 105.098 44.929 105.039 44.6709C104.98 44.4085 104.887 44.1779 104.76 43.979C104.637 43.7759 104.476 43.6172 104.277 43.5029C104.083 43.3844 103.848 43.3252 103.573 43.3252C103.302 43.3252 103.069 43.3844 102.875 43.5029C102.68 43.6172 102.521 43.7759 102.398 43.979C102.276 44.1779 102.185 44.4085 102.125 44.6709C102.066 44.929 102.037 45.2062 102.037 45.5024ZM109.8 39.25V49H108.118V39.25H109.8ZM115.487 47.3687V42.1318H117.176V49H115.589L115.487 47.3687ZM115.703 45.9468L116.224 45.9341C116.224 46.3953 116.173 46.8206 116.071 47.21C115.97 47.5993 115.811 47.9378 115.595 48.2256C115.384 48.5091 115.115 48.7313 114.789 48.8921C114.463 49.0487 114.078 49.127 113.634 49.127C113.295 49.127 112.986 49.0804 112.707 48.9873C112.428 48.89 112.187 48.7397 111.983 48.5366C111.785 48.3293 111.63 48.0648 111.52 47.7432C111.41 47.4173 111.355 47.0259 111.355 46.5688V42.1318H113.031V46.5815C113.031 46.8101 113.056 47.0005 113.107 47.1528C113.162 47.3052 113.236 47.43 113.329 47.5273C113.426 47.6204 113.539 47.6882 113.666 47.7305C113.797 47.7686 113.936 47.7876 114.084 47.7876C114.491 47.7876 114.81 47.7072 115.043 47.5464C115.28 47.3813 115.449 47.1613 115.551 46.8862C115.652 46.6069 115.703 46.2938 115.703 45.9468ZM120.331 43.541V49H118.655V42.1318H120.235L120.331 43.541ZM120.083 45.3184H119.569C119.569 44.8402 119.626 44.4001 119.74 43.998C119.859 43.596 120.032 43.2469 120.261 42.9507C120.489 42.6502 120.771 42.4175 121.105 42.2524C121.444 42.0874 121.835 42.0049 122.279 42.0049C122.588 42.0049 122.872 42.0514 123.13 42.1445C123.388 42.2334 123.61 42.3752 123.796 42.5698C123.987 42.7603 124.133 43.0099 124.234 43.3188C124.336 43.6235 124.387 43.9896 124.387 44.417V49H122.711V44.5884C122.711 44.2668 122.664 44.015 122.571 43.833C122.482 43.651 122.353 43.5241 122.184 43.4521C122.015 43.376 121.812 43.3379 121.575 43.3379C121.312 43.3379 121.086 43.3908 120.896 43.4966C120.709 43.5981 120.555 43.7399 120.432 43.9219C120.314 44.1038 120.225 44.3133 120.166 44.5503C120.111 44.7873 120.083 45.0433 120.083 45.3184ZM124.26 45.0073L123.568 45.1343C123.572 44.7026 123.631 44.2985 123.746 43.9219C123.86 43.541 124.027 43.2088 124.247 42.9253C124.471 42.6375 124.749 42.4132 125.079 42.2524C125.413 42.0874 125.798 42.0049 126.234 42.0049C126.572 42.0049 126.877 42.0535 127.148 42.1509C127.423 42.244 127.658 42.3942 127.853 42.6016C128.047 42.8047 128.195 43.0692 128.297 43.395C128.403 43.7209 128.456 44.1187 128.456 44.5884V49H126.767V44.582C126.767 44.2477 126.721 43.9917 126.627 43.814C126.539 43.6362 126.41 43.5135 126.24 43.4458C126.071 43.3739 125.872 43.3379 125.644 43.3379C125.411 43.3379 125.208 43.3823 125.034 43.4712C124.865 43.5558 124.721 43.6743 124.603 43.8267C124.488 43.979 124.402 44.1567 124.342 44.3599C124.287 44.5588 124.26 44.7746 124.26 45.0073ZM131.604 43.5981V49H129.928V42.1318H131.502L131.604 43.5981ZM131.337 45.3184H130.842C130.847 44.819 130.914 44.3662 131.045 43.96C131.177 43.5537 131.361 43.2046 131.598 42.9126C131.839 42.6206 132.125 42.3963 132.455 42.2397C132.785 42.0832 133.153 42.0049 133.559 42.0049C133.889 42.0049 134.188 42.0514 134.454 42.1445C134.721 42.2376 134.949 42.3857 135.14 42.5889C135.334 42.792 135.482 43.0586 135.584 43.3887C135.69 43.7145 135.743 44.1165 135.743 44.5947V49H134.054V44.582C134.054 44.2689 134.008 44.0213 133.915 43.8394C133.826 43.6574 133.694 43.5283 133.521 43.4521C133.352 43.376 133.142 43.3379 132.893 43.3379C132.634 43.3379 132.408 43.3908 132.213 43.4966C132.023 43.5981 131.862 43.7399 131.731 43.9219C131.604 44.1038 131.507 44.3133 131.439 44.5503C131.371 44.7873 131.337 45.0433 131.337 45.3184Z" fill="white"/>
</svg>
