<svg width="320" height="44" viewBox="0 0 320 44" fill="none" xmlns="http://www.w3.org/2000/svg">
<path fill-rule="evenodd" clip-rule="evenodd" d="M51.2224 14.4717L36 5V39L51.2224 29.5283C55.979 26.5687 61.4692 25 67.0714 25H95L114.929 25C120.531 25 126.021 26.5686 130.778 29.5283L146 39V5L130.778 14.4717C126.021 17.4313 120.531 19 114.929 19L87 19L67.0714 19C61.4692 19 55.979 17.4313 51.2224 14.4717Z" fill="#1C9CA7"/>
<path fill-rule="evenodd" clip-rule="evenodd" d="M189.222 14.4717L174 5V39L189.222 29.5283C193.979 26.5687 199.469 25 205.071 25H233L252.929 25C258.531 25 264.021 26.5686 268.778 29.5283L284 39V5L268.778 14.4717C264.021 17.4313 258.531 19 252.929 19L225 19L205.071 19C199.469 19 193.979 17.4313 189.222 14.4717Z" fill="url(#paint0_linear_2433_12431)"/>
<circle cx="22" cy="22" r="22" fill="#1C9CA7"/>
<circle cx="160" cy="22" r="22" fill="#1C9CA7"/>
<circle cx="298" cy="22" r="22" fill="#546176"/>
<path d="M24.7988 13.3271V29H21.7051V16.8936L17.9883 18.0752V15.6367L24.4658 13.3271H24.7988Z" fill="white"/>
<path d="M165.957 26.583V29H155.258V26.9375L160.317 21.5127C160.826 20.9469 161.227 20.4492 161.521 20.0195C161.814 19.5827 162.025 19.1924 162.154 18.8486C162.29 18.4977 162.358 18.1647 162.358 17.8496C162.358 17.377 162.28 16.9723 162.122 16.6357C161.965 16.292 161.732 16.027 161.424 15.8408C161.123 15.6546 160.751 15.5615 160.307 15.5615C159.834 15.5615 159.426 15.6761 159.082 15.9053C158.745 16.1344 158.488 16.4531 158.309 16.8613C158.137 17.2695 158.051 17.7314 158.051 18.2471H154.946C154.946 17.3161 155.168 16.4639 155.612 15.6904C156.056 14.9098 156.683 14.2904 157.492 13.832C158.301 13.3665 159.261 13.1338 160.371 13.1338C161.467 13.1338 162.391 13.3128 163.143 13.6709C163.902 14.0218 164.475 14.5303 164.861 15.1963C165.255 15.8551 165.452 16.6429 165.452 17.5596C165.452 18.0752 165.37 18.5801 165.205 19.0742C165.04 19.5612 164.804 20.0482 164.496 20.5352C164.195 21.015 163.83 21.502 163.4 21.9961C162.971 22.4902 162.494 23.0023 161.972 23.5322L159.254 26.583H165.957Z" fill="white"/>
<path d="M296.427 19.8369H298.081C298.611 19.8369 299.048 19.7474 299.392 19.5684C299.735 19.3822 299.99 19.1243 300.154 18.7949C300.326 18.4583 300.412 18.068 300.412 17.624C300.412 17.223 300.333 16.8685 300.176 16.5605C300.025 16.2454 299.793 16.002 299.478 15.8301C299.162 15.651 298.765 15.5615 298.285 15.5615C297.906 15.5615 297.555 15.6367 297.232 15.7871C296.91 15.9375 296.652 16.1488 296.459 16.4209C296.266 16.693 296.169 17.0225 296.169 17.4092H293.064C293.064 16.5498 293.294 15.8014 293.752 15.1641C294.217 14.5267 294.84 14.029 295.621 13.6709C296.402 13.3128 297.261 13.1338 298.199 13.1338C299.259 13.1338 300.187 13.3057 300.981 13.6494C301.776 13.986 302.396 14.4837 302.84 15.1426C303.284 15.8014 303.506 16.6178 303.506 17.5918C303.506 18.0859 303.391 18.5658 303.162 19.0312C302.933 19.4896 302.604 19.9049 302.174 20.2773C301.751 20.6426 301.236 20.9362 300.627 21.1582C300.018 21.373 299.334 21.4805 298.575 21.4805H296.427V19.8369ZM296.427 22.1895V20.5889H298.575C299.427 20.5889 300.176 20.6855 300.82 20.8789C301.465 21.0723 302.006 21.3516 302.442 21.7168C302.879 22.0749 303.209 22.501 303.431 22.9951C303.653 23.4821 303.764 24.0228 303.764 24.6172C303.764 25.3477 303.624 25.9993 303.345 26.5723C303.065 27.138 302.672 27.6178 302.163 28.0117C301.662 28.4056 301.075 28.7064 300.401 28.9141C299.728 29.1146 298.994 29.2148 298.199 29.2148C297.54 29.2148 296.892 29.1253 296.255 28.9463C295.625 28.7601 295.052 28.4844 294.536 28.1191C294.028 27.7467 293.619 27.2812 293.312 26.7227C293.011 26.1569 292.86 25.4873 292.86 24.7139H295.965C295.965 25.1149 296.065 25.473 296.266 25.7881C296.466 26.1032 296.742 26.3503 297.093 26.5293C297.451 26.7083 297.848 26.7979 298.285 26.7979C298.779 26.7979 299.202 26.7083 299.553 26.5293C299.911 26.3431 300.183 26.0853 300.369 25.7559C300.562 25.4193 300.659 25.029 300.659 24.585C300.659 24.012 300.555 23.5537 300.348 23.21C300.14 22.859 299.843 22.6012 299.456 22.4365C299.069 22.2718 298.611 22.1895 298.081 22.1895H296.427Z" fill="#8A95A7"/>
<defs>
<linearGradient id="paint0_linear_2433_12431" x1="174" y1="22" x2="286.92" y2="22" gradientUnits="userSpaceOnUse">
<stop stop-color="#1C9CA7"/>
<stop offset="0.494792" stop-color="#1C9CA7"/>
<stop offset="0.87116" stop-color="#536176"/>
</linearGradient>
</defs>
</svg>
