<svg width="110" height="110" viewBox="0 0 110 110" fill="none" xmlns="http://www.w3.org/2000/svg">
<path d="M44.5256 0.000246633C32.6889 0.000246633 21.962 1.76811 13.9702 4.76551C9.9731 6.26417 6.654 8.06283 4.17944 10.2568C1.71453 12.4421 0.0194044 15.2025 0.0052615 18.3007L0 91.6665C0 94.7796 1.69946 97.5489 4.17418 99.7437C6.6489 101.939 9.97592 103.733 13.9728 105.232C21.9657 108.231 32.6861 110.004 44.5237 110C50.6613 109.998 56.7189 109.489 62.3224 108.522C65.8458 107.988 64.9321 102.684 61.4324 103.36C56.1499 104.272 50.3717 104.761 44.5237 104.762C33.2186 104.766 22.985 103.02 15.8114 100.329C12.2247 98.9843 9.41608 97.3918 7.65002 95.8257C5.88395 94.2597 5.23764 92.8925 5.23764 91.6666V77.0475C7.57279 78.8487 10.521 80.3648 13.9717 81.6592C21.9656 84.6566 32.6868 86.4288 44.5226 86.4288C48.2846 86.4288 51.9281 86.2411 55.4077 85.8991C58.9601 85.6229 58.4348 80.2675 54.8965 80.6867C51.5844 81.012 48.1108 81.1909 44.5225 81.1909C33.2165 81.1909 22.9838 79.4458 15.8102 76.7554C12.2235 75.4102 9.41489 73.8168 7.64882 72.2517C5.88271 70.6855 5.23645 69.3209 5.23645 68.095V50.8487C7.5707 52.6534 10.5147 54.1732 13.968 55.4683C21.961 58.4657 32.6876 60.2336 44.5234 60.2336C56.3608 60.2336 67.078 58.4666 75.0721 55.4683C78.5219 54.1748 81.4719 52.6577 83.8071 50.8566V55.0052C83.7571 58.547 89.0958 58.547 89.0449 55.0052L89.0502 18.3391C89.0502 15.2261 87.3481 12.4514 84.8735 10.2565C82.3989 8.06249 79.07 6.26396 75.0731 4.76526C67.0801 1.76786 56.3614 0 44.5244 0L44.5256 0.000246633ZM73.2357 9.67625C76.8224 11.0214 79.6285 12.607 81.3946 14.173C83.1537 15.7322 83.8061 17.1019 83.8115 18.3243C83.8115 18.3304 83.8088 18.3287 83.8088 18.3348V18.3787C83.7957 19.595 83.1424 20.9471 81.3947 22.4967C79.6285 24.0629 76.8225 25.6457 73.2358 26.991C66.0626 29.6813 55.8326 31.4283 44.5256 31.4283C33.2196 31.4283 22.9885 29.6806 15.8155 26.991C12.2288 25.6458 9.41238 24.063 7.64609 22.4967C5.87998 20.9305 5.23888 19.5669 5.23888 18.3401C5.23888 17.1141 5.87991 15.7391 7.64609 14.1737C9.4122 12.6076 12.2288 11.0221 15.8155 9.67696C22.9887 6.98666 33.2187 5.24147 44.5256 5.24237C55.8317 5.24237 66.0628 6.98743 73.2358 9.67786L73.2357 9.67625ZM5.23747 27.2831C7.57172 29.0869 10.5166 30.6048 13.969 31.8999C21.9629 34.8973 32.6895 36.6668 44.5267 36.6668C56.3641 36.6668 67.0835 34.8972 75.0754 31.8999C78.5243 30.6065 81.4743 29.0893 83.8094 27.2882V41.9432C83.7963 43.1595 83.143 44.5116 81.3953 46.0613C79.6292 47.6274 76.8231 49.2225 73.2364 50.5677C66.0632 53.258 55.8332 55.005 44.5263 55.005C33.2202 55.005 22.9891 53.2573 15.8161 50.5677C12.2304 49.2234 9.41367 47.6273 7.6476 46.0613C5.88148 44.4959 5.24039 43.1314 5.24039 41.9055C5.24039 41.8765 5.23951 41.8476 5.23775 41.8178L5.23747 27.2831Z" fill="#1C9CA7"/>
<path d="M86.4337 62.8535C73.4465 62.8535 62.8555 73.4441 62.8555 86.4318C62.8555 99.419 73.446 109.999 86.4337 109.999C99.4214 109.999 110.001 99.4179 110.001 86.4318C110.001 73.4445 99.4198 62.8535 86.4337 62.8535ZM86.4337 68.0931C96.5901 68.0931 104.762 76.2747 104.762 86.4313C104.762 96.5877 96.5904 104.76 86.4337 104.76C76.2771 104.76 68.0955 96.588 68.0955 86.4313C68.0955 76.2749 76.2771 68.0931 86.4337 68.0931Z" fill="#1C9CA7"/>
<path d="M94.2343 78.5424C93.5556 78.5635 92.9102 78.8476 92.4366 79.3351L83.814 87.9578L80.4212 84.5748C79.9354 84.0574 79.2619 83.7592 78.5525 83.7478C77.8431 83.7364 77.16 84.0127 76.6584 84.5143C76.1568 85.0159 75.8806 85.699 75.8919 86.4084C75.9033 87.1178 76.2015 87.7913 76.7189 88.2771L81.9585 93.5167H81.9576C82.981 94.5383 84.6376 94.5383 85.6608 93.5167L96.14 83.0471H96.1392C96.9205 82.2947 97.1573 81.139 96.7355 80.1402C96.3128 79.1414 95.3184 78.5065 94.2344 78.5425L94.2343 78.5424Z" fill="#1C9CA7"/>
</svg>
