<svg width="60" height="60" viewBox="0 0 60 60" fill="none" xmlns="http://www.w3.org/2000/svg">
<path d="M10.5 16.5C10.5 15.5431 10.5011 14.8756 10.5688 14.3721C10.6345 13.8829 10.7548 13.6238 10.9393 13.4393C11.1238 13.2548 11.3829 13.1345 11.8721 13.0688C12.3756 13.0011 13.0431 13 14 13H23.3431C24.2014 13 24.4913 13.0089 24.7456 13.1142C24.9999 13.2195 25.2111 13.4182 25.818 14.0251L30.9749 19.182C30.9976 19.2047 31.02 19.2271 31.0421 19.2492C31.5546 19.7623 31.9108 20.1188 32.3717 20.3097C32.8326 20.5006 33.3366 20.5004 34.0618 20.5C34.0931 20.5 34.1247 20.5 34.1569 20.5H46C46.9569 20.5 47.6244 20.5011 48.1279 20.5688C48.6171 20.6345 48.8762 20.7548 49.0607 20.9393C49.2452 21.1238 49.3655 21.3829 49.4312 21.8721C49.4989 22.3756 49.5 23.0431 49.5 24V43.5C49.5 44.4569 49.4989 45.1244 49.4312 45.6279C49.3655 46.1171 49.2452 46.3762 49.0607 46.5607C48.8762 46.7452 48.6171 46.8655 48.1279 46.9312C47.6244 46.9989 46.9569 47 46 47H14C13.0431 47 12.3756 46.9989 11.8721 46.9312C11.3829 46.8655 11.1238 46.7452 10.9393 46.5607C10.7548 46.3762 10.6345 46.1171 10.5688 45.6279C10.5011 45.1244 10.5 44.4569 10.5 43.5V16.5Z" stroke="white"/>
</svg>
