<svg width="14" height="15" viewBox="0 0 14 15" fill="none" xmlns="http://www.w3.org/2000/svg">
<path d="M5.96225 4.56004L6.28135 4.1751L5.96225 4.56004C6.01195 4.60124 6.06141 4.64999 6.20469 4.79327L6.38414 4.97271C6.39419 4.98277 6.40411 4.99269 6.4139 5.00249C6.64089 5.22957 6.79784 5.38659 6.97724 5.51229C7.27664 5.72206 7.61839 5.86362 7.97842 5.92699C8.19416 5.96497 8.41617 5.96492 8.73724 5.96485C8.75109 5.96485 8.76513 5.96484 8.77936 5.96484C9.64902 5.96484 9.95158 5.97242 10.1789 6.055C10.5962 6.20661 10.9249 6.53533 11.0766 6.95266L11.5465 6.78194L11.0766 6.95266C11.1591 7.17997 11.1667 7.48253 11.1667 8.3522V8.67318C11.1667 9.24547 11.1663 9.64441 11.1408 9.95492C11.1157 10.2595 11.069 10.4344 11.001 10.5669C10.8578 10.8457 10.6309 11.0726 10.3521 11.2158C10.2196 11.2838 10.0447 11.3305 9.74012 11.3556C9.42961 11.3811 9.03067 11.3815 8.45837 11.3815H6.33337C5.37643 11.3815 4.70902 11.3804 4.20545 11.3127C3.71627 11.247 3.45722 11.1267 3.27271 10.9422C3.08821 10.7577 2.96791 10.4986 2.90214 10.0094C2.83444 9.50586 2.83337 8.83845 2.83337 7.88151V6.18972C2.83337 5.72571 2.83556 5.56299 2.85938 5.43674C2.97386 4.82996 3.44849 4.35533 4.05527 4.24085C4.18152 4.21703 4.34424 4.21484 4.80825 4.21484C5.01088 4.21484 5.08033 4.21535 5.14461 4.22136C5.44501 4.24945 5.72996 4.36748 5.96225 4.56004Z" stroke="white"/>
</svg>
