<svg width="28" height="29" viewBox="0 0 28 29" fill="none" xmlns="http://www.w3.org/2000/svg">
<path d="M4 11.9043C4 10.0045 4.00106 8.63003 4.14199 7.58183C4.28098 6.54802 4.54772 5.90683 5.02513 5.42942C5.50253 4.95202 6.14373 4.68528 7.17754 4.54628C8.22573 4.40536 9.60025 4.4043 11.5 4.4043H16.5C18.3998 4.4043 19.7743 4.40536 20.8225 4.54628C21.8563 4.68528 22.4975 4.95202 22.9749 5.42942C23.4523 5.90683 23.719 6.54802 23.858 7.58183C23.9989 8.63003 24 10.0045 24 11.9043V16.9043C24 18.8041 23.9989 20.1786 23.858 21.2268C23.719 22.2606 23.4523 22.9018 22.9749 23.3792C22.4975 23.8566 21.8563 24.1233 20.8225 24.2623C19.7743 24.4032 18.3998 24.4043 16.5 24.4043H11.5C9.60025 24.4043 8.22573 24.4032 7.17754 24.2623C6.14373 24.1233 5.50253 23.8566 5.02513 23.3792C4.54772 22.9018 4.28098 22.2606 4.14199 21.2268C4.00106 20.1786 4 18.804 4 16.9043V11.9043Z" stroke="white"/>
<path d="M14 9.73828L14 19.0716" stroke="white" stroke-linejoin="round"/>
<path d="M18.6666 14.4043L9.33329 14.4043" stroke="white" stroke-linejoin="round"/>
</svg>
