<svg width="33" height="33" viewBox="0 0 33 33" fill="none" xmlns="http://www.w3.org/2000/svg">
<path d="M18.8572 9.31066L8.28816 19.8797C8.27714 19.8908 8.26619 19.9017 8.25533 19.9125C8.09286 20.0746 7.94903 20.2182 7.84766 20.3972C7.7463 20.5762 7.69723 20.7734 7.64179 20.9961C7.63809 21.011 7.63435 21.026 7.63057 21.0412L6.59204 25.1953C6.58983 25.2041 6.5876 25.213 6.58536 25.222C6.54612 25.3787 6.50421 25.546 6.49046 25.6865C6.47532 25.8413 6.47885 26.1023 6.68826 26.3117L7.04108 25.9589L6.68826 26.3117C6.89767 26.5211 7.15873 26.5247 7.31346 26.5095C7.45401 26.4958 7.62137 26.4539 7.77807 26.4146C7.78699 26.4124 7.79588 26.4102 7.80472 26.408L11.9588 25.3694C11.974 25.3657 11.989 25.3619 12.0038 25.3582C12.2266 25.3028 12.4238 25.2537 12.6028 25.1523C12.7818 25.051 12.9254 24.9071 13.0875 24.7447C13.0983 24.7338 13.1092 24.7229 13.1203 24.7118L23.6893 14.1428L23.7126 14.1195C24.0261 13.8061 24.2961 13.5361 24.4833 13.2907C24.6839 13.0278 24.8358 12.7354 24.8358 12.375C24.8358 12.0146 24.6839 11.7222 24.4833 11.4593C24.2961 11.2139 24.0261 10.9439 23.7126 10.6305L23.6893 10.6072L22.3928 9.31066L22.3695 9.28739C22.0561 8.97395 21.7861 8.70388 21.5407 8.5167C21.2778 8.3161 20.9854 8.16421 20.625 8.16421C20.2646 8.16421 19.9722 8.3161 19.7093 8.5167C19.4639 8.70388 19.1939 8.97395 18.8805 9.28739L18.8572 9.31066Z" stroke="#1C9CA7"/>
<path d="M17.1875 10.3125L21.3125 7.5625L25.4375 11.6875L22.6875 15.8125L17.1875 10.3125Z" fill="#1C9CA7"/>
</svg>
