<svg width="20" height="21" viewBox="0 0 20 21" fill="none" xmlns="http://www.w3.org/2000/svg">
<path d="M5.09646 16.2486L5.09647 16.2486L5.11824 16.2432L5.11825 16.2432L7.08392 15.7518C7.09904 15.748 7.11405 15.7442 7.12894 15.7405C7.35167 15.6851 7.54885 15.636 7.72788 15.5347C7.90691 15.4333 8.05044 15.2895 8.21256 15.127C8.2234 15.1161 8.23433 15.1052 8.24535 15.0942L14.1036 9.23588L14.1212 9.21829C14.3605 8.97907 14.5668 8.77278 14.7175 8.58706C14.8774 8.39 15.0114 8.17335 15.061 7.9044L14.5693 7.81371L15.061 7.9044C15.0942 7.72453 15.0942 7.54012 15.061 7.36025L14.5693 7.45094L15.061 7.36025C15.0114 7.0913 14.8774 6.87464 14.7175 6.67759C14.5668 6.49188 14.3605 6.2856 14.1213 6.04639L14.1036 6.02877L13.7583 6.3741L14.1036 6.02877L14.0861 6.01118C13.8468 5.77194 13.6405 5.56563 13.4548 5.41493C13.2578 5.25503 13.0411 5.12103 12.7722 5.07142C12.5923 5.03824 12.4079 5.03824 12.228 5.07142C11.9591 5.12103 11.7424 5.25503 11.5454 5.41493C11.3596 5.56563 11.1533 5.77193 10.9141 6.01118L10.8965 6.02877L5.03824 11.8871C5.02722 11.8981 5.01627 11.909 5.00541 11.9198C4.84294 12.082 4.69911 12.2255 4.59775 12.4045C4.49638 12.5836 4.44731 12.7807 4.39188 13.0035C4.38817 13.0184 4.38443 13.0334 4.38065 13.0485L3.88379 15.0359C3.88157 15.0448 3.87935 15.0537 3.87711 15.0626C3.83787 15.2193 3.79596 15.3867 3.78221 15.5272C3.76707 15.6819 3.7706 15.943 3.98001 16.1524C4.18942 16.3618 4.45047 16.3653 4.6052 16.3502C4.74574 16.3365 4.91307 16.2945 5.06976 16.2553C5.07869 16.2531 5.0876 16.2508 5.09646 16.2486Z" stroke="#2A374A"/>
<path d="M10.4167 6.38249L12.9167 4.71582L15.4167 7.21582L13.7501 9.71582L10.4167 6.38249Z" fill="#2A374A"/>
</svg>
