<svg width="24" height="24" viewBox="0 0 24 24" fill="none" xmlns="http://www.w3.org/2000/svg">
<path d="M17.0117 9.23506C17.0117 8.9667 16.794 8.74895 16.5258 8.74895H16.1884C16.1048 8.65277 16.0377 8.54585 15.9464 8.45439L14.5815 7.08964V2.43021C14.5815 1.0907 13.4918 0 12.1513 0H2.43037C1.0897 0 0 1.0907 0 2.43021V12.1511C0 13.4908 1.0897 14.5815 2.43021 14.5815H7.29087C7.55923 14.5815 7.77698 14.3637 7.77698 14.0954C7.77698 13.8272 7.55923 13.6094 7.29087 13.6094H2.43021C1.62626 13.6094 0.972049 12.9552 0.972049 12.1513V4.8605H13.6093V6.52763C13.1447 6.45276 12.6517 6.59077 12.294 6.94749C12.1161 7.12439 11.9926 7.3353 11.9217 7.55892C11.3919 7.37518 10.7591 7.51124 10.3498 7.91955C10.1271 8.14218 9.98816 8.4172 9.93265 8.70496C9.47013 8.63807 8.98598 8.79756 8.64881 9.13474C8.32609 9.45745 8.18028 9.89002 8.20845 10.313C7.88183 10.3577 7.57848 10.5065 7.34138 10.7436C6.75029 11.3347 6.75029 12.2979 7.34138 12.889L7.77687 13.3245V15.0674C7.77687 15.8587 8.16273 16.5567 8.75088 17.0009C8.75088 17.005 8.74893 17.0078 8.74893 17.0117V17.4978C8.74893 17.7662 8.96667 17.9839 9.23503 17.9839C9.50323 17.9839 9.72098 17.7662 9.72098 17.4978V17.4482C9.87851 17.4802 10.0409 17.4978 10.2071 17.4978H12.1998C15.121 17.4978 17.498 15.121 17.4988 12.2009C17.4988 11.2793 17.2431 10.4044 16.8037 9.62296C16.9262 9.53443 17.0117 9.3974 17.0117 9.23515L17.0117 9.23506ZM0.971978 3.88821V2.43005C0.971978 1.62611 1.62619 0.971895 2.43014 0.971895H12.151C12.9552 0.971895 13.6094 1.62611 13.6094 2.43005V3.88821H0.971978ZM12.1998 16.5258H10.207C9.40308 16.5258 8.74887 15.8716 8.74887 15.0677V14.2968L9.86382 15.4117C10.0534 15.6013 10.3615 15.6013 10.5511 15.4117C10.6455 15.3165 10.6931 15.192 10.6931 15.0677C10.6931 14.9432 10.6455 14.8189 10.5512 14.7245L8.02858 12.2018C7.81572 11.989 7.81572 11.6438 8.02858 11.4309C8.23364 11.2249 8.59426 11.2249 8.79949 11.4309L9.86399 12.4954C10.0536 12.685 10.3616 12.685 10.5512 12.4954C10.6455 12.4002 10.6931 12.2757 10.6931 12.1514C10.6931 12.0269 10.6455 11.9025 10.5512 11.8082L9.33605 10.593C9.12319 10.3801 9.12319 10.0349 9.33605 9.82207C9.54111 9.61604 9.90173 9.61604 10.107 9.82207L10.836 10.5511C11.0256 10.7407 11.3337 10.7407 11.5233 10.5511C11.6175 10.4559 11.6652 10.3316 11.6652 10.2071C11.6652 10.0826 11.6175 9.95828 11.5223 9.86487L11.0362 9.37876C10.8233 9.1659 10.8233 8.8207 11.0362 8.60785C11.2491 8.39501 11.5943 8.39499 11.8071 8.60785L12.2932 9.09396C12.4828 9.28356 12.7909 9.28356 12.9805 9.09396C13.0747 8.99876 13.1224 8.87426 13.1224 8.74977C13.1224 8.62527 13.0757 8.50093 12.9805 8.40557C12.7676 8.1927 12.7676 7.84751 12.9805 7.63466C13.1933 7.4218 13.5385 7.4218 13.7514 7.63466L15.2582 9.14148C16.0756 9.95826 16.5258 11.0441 16.5258 12.1999C16.5258 14.5855 14.5854 16.526 12.1996 16.526L12.1998 16.5258Z" fill="white"/>
<path d="M10.667 22.2649C10.4425 22.1813 10.2413 22.0413 10.0828 21.8605C9.90592 21.6594 9.59867 21.6389 9.39753 21.8158C9.1954 21.9936 9.1749 22.2999 9.3518 22.5021C9.61625 22.8034 9.95164 23.0357 10.3248 23.1758C10.3821 23.1971 10.4386 23.2069 10.4958 23.2069C10.6923 23.2069 10.877 23.0863 10.9509 22.891C11.0462 22.6392 10.918 22.3593 10.667 22.2649Z" fill="white"/>
<path d="M13.3516 22.3584H12.395C12.1267 22.3584 11.9089 22.5761 11.9089 22.8445C11.9089 23.1129 12.1267 23.3306 12.395 23.3306H13.3516C13.621 23.3306 13.8377 23.1129 13.8377 22.8445C13.8376 22.5761 13.6198 22.3584 13.3516 22.3584Z" fill="white"/>
<path d="M21.6587 22.1456C21.4546 22.2711 21.2213 22.343 20.9822 22.3556C20.7129 22.3702 20.5078 22.5995 20.5225 22.8669C20.5361 23.1264 20.75 23.3276 21.0076 23.3276C21.0164 23.3276 21.0252 23.3276 21.0338 23.3266C21.4333 23.3053 21.8251 23.1837 22.1664 22.9748C22.3958 22.8338 22.4677 22.5344 22.3278 22.3059C22.1865 22.0764 21.8843 22.0065 21.6587 22.1456Z" fill="white"/>
<path d="M9.72083 20.386V19.4285C9.72083 19.1601 9.50308 18.9424 9.23472 18.9424C8.96652 18.9424 8.74878 19.1601 8.74878 19.4285V20.386C8.74878 20.6544 8.96653 20.8721 9.23489 20.8721C9.50308 20.872 9.72083 20.6552 9.72083 20.386Z" fill="white"/>
<path d="M22.8443 10.9194C22.5759 10.9194 22.3582 11.1372 22.3582 11.4055V12.3621C22.3582 12.6305 22.5759 12.8482 22.8443 12.8482C23.1126 12.8482 23.3304 12.6315 23.3304 12.3621V11.4055C23.3304 11.1372 23.1126 10.9194 22.8443 10.9194Z" fill="white"/>
<path d="M21.2053 9.75379C21.4387 9.80342 21.6584 9.91132 21.8411 10.0667C21.9334 10.1445 22.0452 10.1824 22.156 10.1824C22.294 10.1824 22.4301 10.1242 22.5274 10.0124C22.7004 9.80733 22.6762 9.50107 22.4721 9.32709C22.1658 9.06752 21.7983 8.88572 21.4086 8.80307C21.1529 8.74952 20.8875 8.9139 20.8312 9.17737C20.7757 9.43987 20.9428 9.69748 21.2053 9.7538L21.2053 9.75379Z" fill="white"/>
<path d="M16.2227 22.3584H15.2661C14.9978 22.3584 14.78 22.5761 14.78 22.8445C14.78 23.1129 14.9978 23.3306 15.2661 23.3306H16.2227C16.4921 23.3306 16.7088 23.1129 16.7088 22.8445C16.7088 22.5761 16.4911 22.3584 16.2227 22.3584Z" fill="white"/>
<path d="M22.8443 19.5327C22.5759 19.5327 22.3582 19.7505 22.3582 20.0188L22.3562 20.9578L22.8423 20.9762L23.3304 20.9005V20.0188C23.3304 19.7505 23.1126 19.5327 22.8443 19.5327Z" fill="white"/>
<path d="M22.8443 16.6616C22.5759 16.6616 22.3582 16.8794 22.3582 17.1477V18.1053C22.3582 18.3736 22.5759 18.5914 22.8443 18.5914C23.1126 18.5914 23.3304 18.3736 23.3304 18.1043V17.1477C23.3304 16.8794 23.1126 16.6616 22.8443 16.6616Z" fill="white"/>
<path d="M19.0953 22.3584H18.1387C17.8703 22.3584 17.6526 22.5761 17.6526 22.8445C17.6526 23.1129 17.8703 23.3306 18.1387 23.3306H19.0953C19.3636 23.3306 19.5814 23.1129 19.5814 22.8445C19.5814 22.5761 19.3636 22.3584 19.0953 22.3584Z" fill="white"/>
<path d="M22.8443 13.791C22.5759 13.791 22.3582 14.0088 22.3582 14.2771V15.2337C22.3582 15.5021 22.5759 15.7198 22.8443 15.7198C23.1126 15.7198 23.3304 15.5021 23.3304 15.2337V14.2771C23.3304 14.0088 23.1126 13.791 22.8443 13.791Z" fill="white"/>
<path d="M19.3963 8.74902H18.4397C18.1714 8.74902 17.9536 8.96677 17.9536 9.23513C17.9536 9.50349 18.1714 9.72124 18.4397 9.72124H19.3963C19.6647 9.72124 19.8824 9.50349 19.8824 9.23513C19.8824 8.96677 19.6647 8.74902 19.3963 8.74902Z" fill="white"/>
<path d="M2.91638 2.43028C2.91638 2.6988 2.6988 2.91638 2.43028 2.91638C2.16192 2.91638 1.94434 2.6988 1.94434 2.43028C1.94434 2.16192 2.16192 1.94434 2.43028 1.94434C2.6988 1.94434 2.91638 2.16192 2.91638 2.43028Z" fill="white"/>
<path d="M4.86064 2.43028C4.86064 2.6988 4.64289 2.91638 4.37454 2.91638C4.10618 2.91638 3.88843 2.6988 3.88843 2.43028C3.88843 2.16192 4.10618 1.94434 4.37454 1.94434C4.64289 1.94434 4.86064 2.16192 4.86064 2.43028Z" fill="white"/>
<path d="M6.80457 2.43028C6.80457 2.6988 6.58698 2.91638 6.31863 2.91638C6.05011 2.91638 5.83252 2.6988 5.83252 2.43028C5.83252 2.16192 6.05011 1.94434 6.31863 1.94434C6.58699 1.94434 6.80457 2.16192 6.80457 2.43028Z" fill="white"/>
</svg>
