<svg width="83" height="55" viewBox="0 0 83 55" fill="none" xmlns="http://www.w3.org/2000/svg">
<path d="M11.1677 30.6309H15.2751L18.6212 36.1538L21.9673 30.6309H26.0747V44.8759H22.2099V36.6934L18.6212 42.2674H18.5417L14.9781 36.7444V44.8844H11.1719L11.1677 30.6309Z" fill="white"/>
<path d="M28.6756 30.6309H32.556V44.8844H28.6672L28.6756 30.6309Z" fill="white"/>
<path d="M35.1484 30.6309H38.926V41.4198H45.5185V44.8844H35.1484V30.6309Z" fill="white"/>
<path d="M47.4629 30.6309H58.4001V33.9891H51.1896V36.1486H57.7276V39.2646H51.1896V41.5219H58.4811V44.8844H47.4629V30.6309Z" fill="white"/>
<path d="M45.7226 15.3887H37.9653V23.8511H45.7226V15.3887Z" fill="#D03262"/>
<path fill-rule="evenodd" clip-rule="evenodd" d="M48.8708 7.77344H56.7449V15.806H56.7449V23.8388H48.8709V15.8063H48.8708V7.77344Z" fill="#BFD7D1"/>
<path fill-rule="evenodd" clip-rule="evenodd" d="M59.7766 0.404297H67.6507V8.21987H59.7766V0.404297ZM67.6507 8.21991H59.7767V16.0354V16.0355V23.8509H67.6507V16.0355V16.0354V8.21991Z" fill="#1C9CA7"/>
<path d="M65.5573 34.8242H63.6256L63.6153 33.6983H65.2113C65.4936 33.6983 65.7226 33.6638 65.8982 33.595C66.0773 33.5261 66.2081 33.4262 66.2908 33.2954C66.3734 33.1611 66.4147 32.9958 66.4147 32.7995C66.4147 32.5757 66.3734 32.3949 66.2908 32.2572C66.2081 32.1195 66.0773 32.0196 65.8982 31.9576C65.7226 31.8922 65.4954 31.8595 65.2164 31.8595H64.2351V38.0731H62.5513V30.5527H65.2164C65.6675 30.5527 66.0704 30.5941 66.4251 30.6767C66.7797 30.7593 67.081 30.8867 67.329 31.0589C67.5803 31.2311 67.7714 31.4463 67.9023 31.7045C68.0331 31.9628 68.0986 32.2675 68.0986 32.6188C68.0986 32.9252 68.0297 33.211 67.892 33.4762C67.7577 33.7413 67.5407 33.9565 67.2412 34.1218C66.9416 34.2871 66.5404 34.3766 66.0377 34.3904L65.5573 34.8242ZM65.4902 38.0731H63.1969L63.8064 36.7715H65.4902C65.7484 36.7715 65.9585 36.7302 66.1203 36.6475C66.2822 36.5649 66.401 36.453 66.4767 36.3118C66.5525 36.1706 66.5904 36.0122 66.5904 35.8366C66.5904 35.63 66.5542 35.4509 66.4819 35.2994C66.413 35.1479 66.3028 35.0309 66.1513 34.9482C66.0033 34.8656 65.8053 34.8242 65.5573 34.8242H64.0491L64.0595 33.6983H65.9034L66.2959 34.1425C66.7746 34.1321 67.1568 34.2096 67.4426 34.3749C67.7318 34.5367 67.9402 34.7502 68.0676 35.0154C68.195 35.2805 68.2587 35.5611 68.2587 35.8573C68.2587 36.3462 68.1536 36.756 67.9436 37.0865C67.7336 37.4137 67.4219 37.6599 67.0087 37.8252C66.599 37.9904 66.0928 38.0731 65.4902 38.0731Z" fill="white"/>
<path d="M71.1408 30.5527V38.0731H69.4621V30.5527H71.1408Z" fill="white"/>
<path d="M37.9654 22.7969H2V53.1207H80.9829V22.7969H67.584" stroke="url(#paint0_linear_4191_21870)" stroke-width="3"/>
<path d="M80.9829 53.1207V22.7969H67.584" stroke="url(#paint1_linear_4191_21870)" stroke-width="3"/>
<defs>
<linearGradient id="paint0_linear_4191_21870" x1="41.4914" y1="18.9628" x2="70.8454" y2="64.8081" gradientUnits="userSpaceOnUse">
<stop stop-color="#D03262"/>
<stop offset="1" stop-color="#1C9CA7"/>
</linearGradient>
<linearGradient id="paint1_linear_4191_21870" x1="41.6066" y1="18.9628" x2="37.387" y2="54.1574" gradientUnits="userSpaceOnUse">
<stop stop-color="#1C9CA7"/>
<stop offset="1" stop-color="#1C9CA7"/>
</linearGradient>
</defs>
</svg>
