<svg width="24" height="24" viewBox="0 0 24 24" fill="none" xmlns="http://www.w3.org/2000/svg">
<path fill-rule="evenodd" clip-rule="evenodd" d="M13.5116 14.796C14.547 14.796 15.3898 15.6328 15.3898 16.6614V19.3068C15.3898 19.5278 15.567 19.7049 15.794 19.7101H17.4332C18.7249 19.7101 19.775 18.6729 19.775 17.3984V9.89566C19.769 9.45705 19.56 9.04425 19.2014 8.76991L13.5313 4.24797C12.7702 3.6451 11.7055 3.6451 10.9418 4.24969L5.3105 8.76819C4.93811 9.05113 4.72913 9.46393 4.72483 9.91028V17.3984C4.72483 18.6729 5.7749 19.7101 7.06664 19.7101H8.7213C8.95436 19.7101 9.14357 19.5252 9.14357 19.2982C9.14357 19.2483 9.14959 19.1984 9.15991 19.1511V16.6614C9.15991 15.6388 9.99756 14.8029 11.0253 14.796H13.5116ZM17.4332 21.0001H15.7786C14.8308 20.9778 14.0998 20.2339 14.0998 19.3068V16.6614C14.0998 16.344 13.8358 16.086 13.5116 16.086H11.0296C10.7122 16.0877 10.4499 16.3466 10.4499 16.6614V19.2982C10.4499 19.3627 10.4413 19.4246 10.4233 19.4831C10.3304 20.3345 9.60281 21.0001 8.7213 21.0001H7.06664C5.06367 21.0001 3.43481 19.3842 3.43481 17.3984V9.90426C3.44341 9.04941 3.8373 8.2668 4.51757 7.75165L10.1377 3.2409C11.3753 2.26048 13.0996 2.26048 14.3346 3.23918L19.9952 7.75423C20.66 8.26078 21.0539 9.04167 21.065 9.8862V17.3984C21.065 19.3842 19.4362 21.0001 17.4332 21.0001Z" fill="white"/>
</svg>
