<svg width="30" height="30" viewBox="0 0 30 30" fill="none" xmlns="http://www.w3.org/2000/svg">
<path d="M23.62 13.636H6.68909C5.35327 13.636 4.27039 14.7189 4.27039 16.0547V24.5201C4.27039 25.8559 5.35327 26.9388 6.68909 26.9388H23.62C24.9558 26.9388 26.0387 25.8559 26.0387 24.5201V16.0547C26.0387 14.7189 24.9558 13.636 23.62 13.636Z" stroke="white" stroke-width="2" stroke-linecap="round" stroke-linejoin="round"/>
<path d="M9.10779 13.6361V8.7987C9.10779 7.195 9.74485 5.65699 10.8788 4.523C12.0128 3.38902 13.5508 2.75195 15.1545 2.75195C16.7582 2.75195 18.2962 3.38902 19.4302 4.523C20.5642 5.65699 21.2013 7.195 21.2013 8.7987V13.6361" stroke="white" stroke-width="2" stroke-linecap="round" stroke-linejoin="round"/>
</svg>
