<svg width="116" height="77" viewBox="0 0 116 77" fill="none" xmlns="http://www.w3.org/2000/svg">
<path d="M15 42.8608H20.8244L25.5692 50.6926L30.3141 42.8608H36.1385V63.0607H30.6581V51.4577L25.5692 59.3617H25.4565L20.4032 51.53V63.0728H15.0059L15 42.8608Z" fill="white"/>
<path d="M39.8267 42.8608H45.3293V63.0728H39.8149L39.8267 42.8608Z" fill="white"/>
<path d="M49.0054 42.8608H54.3621V58.1599H63.7104V63.0728H49.0054V42.8608Z" fill="white"/>
<path d="M66.4678 42.8608H81.977V47.623H71.7524V50.6852H81.0235V55.1037H71.7524V58.3046H82.0919V63.0728H66.4678V42.8608Z" fill="white"/>
<path d="M64 21.248H53V33.248H64V21.248Z" fill="#D03262"/>
<path fill-rule="evenodd" clip-rule="evenodd" d="M68.4644 10.4495H79.63V21.84V21.8402V33.2308H68.4644V21.8402V21.84V10.4495Z" fill="#BFD7D1"/>
<path fill-rule="evenodd" clip-rule="evenodd" d="M83.929 0H95.0946V11.0827H83.929V0ZM95.0946 11.0828H83.929V22.1653V22.1655V33.248H95.0946V22.1655V22.1653V11.0828Z" fill="#1C9CA7"/>
<path d="M92.1262 48.8091H89.387L89.3723 47.2124H91.6355C92.0359 47.2124 92.3606 47.1636 92.6096 47.0659C92.8635 46.9683 93.0491 46.8267 93.1663 46.6411C93.2834 46.4507 93.342 46.2163 93.342 45.938C93.342 45.6206 93.2834 45.3643 93.1663 45.1689C93.0491 44.9736 92.8635 44.832 92.6096 44.7441C92.3606 44.6514 92.0383 44.605 91.6428 44.605H90.2512V53.416H87.8635V42.752H91.6428C92.2825 42.752 92.8538 42.8105 93.3567 42.9277C93.8596 43.0449 94.2869 43.2256 94.6384 43.4697C94.9949 43.7139 95.2659 44.019 95.4514 44.3853C95.637 44.7515 95.7297 45.1836 95.7297 45.6816C95.7297 46.1162 95.6321 46.5215 95.4368 46.8975C95.2463 47.2734 94.9387 47.5786 94.5139 47.813C94.0891 48.0474 93.5203 48.1743 92.8074 48.1938L92.1262 48.8091ZM92.031 53.416H88.7791L89.6433 51.5703H92.031C92.3972 51.5703 92.6951 51.5117 92.9246 51.3945C93.1541 51.2773 93.3225 51.1187 93.4299 50.9185C93.5374 50.7183 93.5911 50.4937 93.5911 50.2446C93.5911 49.9517 93.5398 49.6978 93.4373 49.4829C93.3396 49.2681 93.1833 49.1021 92.9685 48.9849C92.7585 48.8677 92.4778 48.8091 92.1262 48.8091H89.9875L90.0022 47.2124H92.6169L93.1736 47.8423C93.8523 47.8276 94.3943 47.9375 94.7996 48.1719C95.2097 48.4014 95.5051 48.7041 95.6858 49.0801C95.8665 49.4561 95.9568 49.854 95.9568 50.2739C95.9568 50.9673 95.8079 51.5483 95.51 52.0171C95.2122 52.481 94.7703 52.8301 94.1843 53.0645C93.6033 53.2988 92.8855 53.416 92.031 53.416Z" fill="white"/>
<path d="M100.044 42.752V53.416H97.6633V42.752H100.044Z" fill="white"/>
<path d="M53 31.752H2V74.752H114V31.752H95" stroke="url(#paint0_linear_2346_10005)" stroke-width="3"/>
<path d="M114 74.752V31.752H95" stroke="url(#paint1_linear_2346_10005)" stroke-width="3"/>
<defs>
<linearGradient id="paint0_linear_2346_10005" x1="58" y1="26.3152" x2="99.6247" y2="91.3251" gradientUnits="userSpaceOnUse">
<stop stop-color="#D03262"/>
<stop offset="1" stop-color="#1C9CA7"/>
</linearGradient>
<linearGradient id="paint1_linear_2346_10005" x1="58.1633" y1="26.3152" x2="52.1798" y2="76.222" gradientUnits="userSpaceOnUse">
<stop stop-color="#1C9CA7"/>
<stop offset="1" stop-color="#1C9CA7"/>
</linearGradient>
</defs>
</svg>
