<svg width="20" height="20" viewBox="0 0 20 20" fill="none" xmlns="http://www.w3.org/2000/svg">
<path d="M18.0581 0.56174C16.9201 0.199675 15.4136 0 13.8155 0C12.2175 0 10.711 0.199387 9.57292 0.56174C8.30272 0.965993 7.63131 1.52864 7.63131 2.18838V4.3051C7.16313 4.26824 6.6782 4.24899 6.18437 4.24899C4.58646 4.24899 3.07956 4.44838 1.94176 4.81073C0.671554 5.21499 0.000148023 5.77764 0.000148023 6.43737L0 17.8116C0 18.4715 0.671291 19.034 1.94161 19.4383C3.0796 19.8003 4.58619 20 6.18422 20C7.78244 20 9.28903 19.8006 10.4268 19.4383C11.697 19.034 12.3684 18.4714 12.3684 17.8116V15.6945C12.8402 15.7318 13.3254 15.751 13.8154 15.751C15.4133 15.751 16.9202 15.5516 18.058 15.1893C19.3282 14.785 19.9996 14.2224 19.9996 13.5626L19.9998 2.18799C19.9996 1.5281 19.3283 0.965754 18.0578 0.561501L18.0581 0.56174ZM9.76846 1.17649C10.8447 0.833819 12.282 0.645372 13.8155 0.645372C15.349 0.645372 16.7862 0.833955 17.8626 1.17649C18.9639 1.52701 19.3547 1.94059 19.3547 2.18838C19.3547 2.43617 18.9639 2.84974 17.8626 3.20026C16.7863 3.54293 15.349 3.73138 13.8155 3.73138C12.282 3.73138 10.8448 3.5428 9.76846 3.20026C8.66718 2.84974 8.27638 2.43617 8.27638 2.18838C8.27638 1.94058 8.6673 1.52701 9.76846 1.17649ZM2.13737 5.42517C3.21363 5.08249 4.65095 4.89404 6.18444 4.89404C7.71782 4.89404 9.15514 5.08263 10.2315 5.42517C11.3328 5.77568 11.7236 6.18926 11.7236 6.43705C11.7236 6.68484 11.3328 7.09841 10.2315 7.44893C9.15526 7.79161 7.71794 7.98005 6.18444 7.98005C4.65106 7.98005 3.21375 7.79147 2.13737 7.44893C1.03609 7.09841 0.645293 6.68484 0.645293 6.43705C0.645293 6.18926 1.03594 5.77568 2.13737 5.42517ZM0.645141 7.46197C0.963837 7.6883 1.39753 7.89062 1.94153 8.06384C3.07953 8.4259 4.58611 8.62558 6.18414 8.62558C7.78236 8.62558 9.28894 8.42619 10.4267 8.06384C10.9707 7.8908 11.4048 7.68845 11.7231 7.46212V10.229C11.7231 10.4768 11.3324 10.8903 10.2311 11.2409C9.1548 11.5835 7.71748 11.772 6.18399 11.772C4.6505 11.772 3.21329 11.5834 2.13691 11.2409C1.03564 10.8903 0.644838 10.4768 0.644838 10.229L0.644986 7.46197H0.645141ZM0.645141 11.2536C0.963837 11.48 1.39753 11.6823 1.94153 11.8554C3.07953 12.2174 4.58611 12.4171 6.18414 12.4171C7.78236 12.4171 9.28894 12.2177 10.4267 11.8554C10.9707 11.6823 11.4048 11.48 11.7231 11.2536V14.0204C11.7231 14.2681 11.3324 14.6817 10.2311 15.0322C9.1548 15.3749 7.71748 15.5634 6.18399 15.5634C4.6505 15.5634 3.21329 15.3748 2.13691 15.0322C1.03564 14.6817 0.644838 14.2681 0.644838 14.0204L0.644986 11.2536H0.645141ZM10.2316 18.8237C9.15529 19.1664 7.71798 19.3548 6.18448 19.3548C4.65099 19.3548 3.21378 19.1663 2.13741 18.8237C1.03613 18.4732 0.645331 18.0596 0.645331 17.812V15.0451C0.964027 15.2714 1.39772 15.4738 1.94172 15.647C3.07972 16.0091 4.5863 16.2087 6.18433 16.2087C7.78255 16.2087 9.28913 16.0093 10.4269 15.647C10.9709 15.4739 11.4049 15.2716 11.7233 15.0453L11.7235 17.812C11.723 18.0596 11.3321 18.4732 10.2309 18.8237H10.2316ZM17.8626 14.575C16.7864 14.9177 15.3491 15.1062 13.8156 15.1062C13.3246 15.1062 12.8393 15.0863 12.3686 15.0474V11.9032C12.8404 11.9405 13.3253 11.9598 13.8156 11.9598C15.4135 11.9598 16.9204 11.7604 18.0582 11.398C18.6021 11.225 19.0362 11.0226 19.3546 10.7962V13.563C19.3546 13.811 18.9638 14.2245 17.8623 14.5751L17.8626 14.575ZM17.8626 10.7834C16.7864 11.126 15.3491 11.3145 13.8156 11.3145C13.3246 11.3145 12.8392 11.2947 12.3686 11.2557V8.11155C12.8404 8.14886 13.3253 8.1681 13.8156 8.1681C15.4135 8.1681 16.9204 7.96871 18.0582 7.60636C18.6021 7.43332 19.0362 7.23097 19.3546 7.00449V9.7712C19.3546 10.0191 18.9638 10.4327 17.8623 10.7834L17.8626 10.7834ZM17.8626 6.9917C16.7864 7.33438 15.3491 7.52282 13.8156 7.52282C13.3246 7.52282 12.8392 7.50299 12.3686 7.46406V6.43706C12.3686 5.77717 11.6973 5.21467 10.427 4.81042C9.80548 4.61251 9.07306 4.4636 8.27638 4.36903V3.21311C8.59508 3.43944 9.02877 3.64177 9.57277 3.81483C10.7108 4.1769 12.2174 4.37657 13.8154 4.37657C15.4136 4.37657 16.9202 4.17718 18.058 3.81483C18.602 3.64179 19.036 3.43945 19.3544 3.21296V5.97968C19.3544 6.22747 18.9636 6.64134 17.8622 6.99171L17.8626 6.9917ZM14.7253 5.94992C14.7253 6.12814 14.581 6.27246 14.4027 6.27246H13.2288C13.0506 6.27246 12.9062 6.12814 12.9062 5.94992C12.9062 5.7717 13.0506 5.62738 13.2288 5.62738H14.4027C14.5807 5.62708 14.7253 5.7717 14.7253 5.94992ZM14.7253 9.74121C14.7253 9.91943 14.581 10.0638 14.4027 10.0638H13.2288C13.0506 10.0638 12.9062 9.91943 12.9062 9.74121C12.9062 9.56299 13.0506 9.41867 13.2288 9.41867H14.4027C14.5807 9.41882 14.7253 9.56314 14.7253 9.74121ZM14.7253 13.5329C14.7253 13.7111 14.581 13.8554 14.4027 13.8554H13.2288C13.0506 13.8554 12.9062 13.7111 12.9062 13.5329C12.9062 13.3547 13.0506 13.2103 13.2288 13.2103H14.4027C14.5807 13.2105 14.7253 13.3548 14.7253 13.5329ZM5.27453 10.1987C5.27453 10.0205 5.41886 9.87613 5.59708 9.87613H6.77103C6.94925 9.87613 7.09357 10.0205 7.09357 10.1987C7.09357 10.3769 6.94925 10.5212 6.77103 10.5212H5.59708C5.41915 10.5214 5.27453 10.3769 5.27453 10.1987ZM5.27453 13.9903C5.27453 13.8121 5.41886 13.6678 5.59708 13.6678H6.77103C6.94925 13.6678 7.09357 13.8121 7.09357 13.9903C7.09357 14.1686 6.9494 14.3129 6.77118 14.3129H5.59722C5.41915 14.3129 5.27453 14.1686 5.27453 13.9903ZM7.09375 17.782C7.09375 17.9602 6.94943 18.1046 6.77121 18.1046H5.59725C5.41903 18.1046 5.27471 17.9602 5.27471 17.782C5.27471 17.6038 5.41903 17.4595 5.59725 17.4595H6.77121C6.94943 17.4593 7.09375 17.6039 7.09375 17.782Z" fill="white"/>
</svg>
