<svg width="15" height="19" viewBox="0 0 15 19" fill="none" xmlns="http://www.w3.org/2000/svg">
<path d="M14.9999 2.98071V2.97394C14.9957 2.10834 14.1642 1.33156 12.6558 0.783002C11.2698 0.27848 9.43833 0 7.49984 0C5.56135 0 3.72999 0.278469 2.34311 0.783002C0.835798 1.33186 0.00418684 2.10924 9.95659e-07 2.97394V16.1813C-0.000143694 16.2456 0.0154835 16.3091 0.0454375 16.366C0.236875 17.0952 1.0343 17.7437 2.33906 18.2185C3.72453 18.7221 5.5563 19 7.49986 19C9.44343 19 11.2753 18.7226 12.6607 18.2189C14.1692 17.6701 15 16.8889 15 16.0197L14.9999 2.98071ZM2.6017 1.52004C3.90776 1.04496 5.64733 0.783292 7.49988 0.783292C9.35243 0.783292 11.0919 1.04497 12.3981 1.52004C13.543 1.93649 14.2275 2.48105 14.2309 2.97675C14.2282 3.47479 13.5452 4.0201 12.4019 4.43595C11.0986 4.91028 9.35761 5.17225 7.50006 5.17225C5.64251 5.17225 3.90143 4.91115 2.59781 4.43697C1.45527 4.02112 0.772307 3.47626 0.768973 2.97822C0.772157 2.4812 1.45671 1.9368 2.602 1.52004H2.6017ZM12.4018 17.4817C11.0984 17.9558 9.35743 18.2169 7.49988 18.2169C5.64233 18.2169 3.90124 17.9558 2.59763 17.4817C1.45234 17.0649 0.76864 16.5183 0.76864 16.0195V13.0359C1.24412 13.3991 1.77443 13.6813 2.33877 13.8714C3.7234 14.3752 5.55613 14.6525 7.49995 14.6525C9.44377 14.6525 11.2754 14.375 12.6608 13.8714C13.2251 13.6814 13.7554 13.3992 14.2307 13.0359V16.0195C14.2307 16.5184 13.547 17.0649 12.4018 17.4817ZM12.4018 13.1342C11.0984 13.6086 9.35743 13.8702 7.49988 13.8702C5.64233 13.8702 3.90124 13.6091 2.59763 13.1347C1.45234 12.7182 0.76864 12.1716 0.76864 11.6727V8.68889C1.24412 9.05189 1.77443 9.33403 2.33877 9.52415C3.7234 10.0279 5.55613 10.3052 7.49995 10.3052C9.44377 10.3052 11.2754 10.0278 12.6608 9.52415C13.2251 9.33418 13.7554 9.05204 14.2307 8.68889V11.6723C14.2307 12.1712 13.547 12.7176 12.4018 13.1342ZM12.4018 8.78721C11.0984 9.26139 9.35743 9.52249 7.49988 9.52249C5.64233 9.52249 3.90124 9.26139 2.59763 8.78721C1.45234 8.37045 0.76864 7.82382 0.76864 7.32507V4.34438C1.24412 4.70753 1.77443 4.98967 2.33877 5.17964C3.7234 5.6834 5.55613 5.96072 7.49995 5.96072C9.44377 5.96072 11.2754 5.68328 12.6608 5.17964C13.2251 4.98967 13.7554 4.70754 14.2307 4.34438V7.32567C14.2307 7.82386 13.547 8.37049 12.4018 8.78725V8.78721ZM3.04214 7.17782C3.01045 7.27648 2.94129 7.35821 2.85013 7.40504C2.75911 7.45172 2.65348 7.45967 2.55653 7.42698C2.20723 7.31197 1.86632 7.17134 1.53686 7.00641C1.34687 6.90981 1.26974 6.67464 1.36481 6.48127C1.45973 6.28792 1.69082 6.20958 1.88082 6.30618C2.17702 6.45418 2.48336 6.58038 2.79748 6.68362C2.89428 6.71616 2.97459 6.78641 3.02046 6.87918C3.06633 6.97181 3.07412 7.0793 3.04214 7.17782ZM3.04214 11.5252C3.01045 11.6239 2.94129 11.7056 2.85013 11.7523C2.75911 11.7991 2.65348 11.8071 2.55653 11.7744C2.20723 11.6592 1.86646 11.5186 1.53686 11.3538C1.34687 11.2572 1.26974 11.022 1.36481 10.8287C1.45973 10.6353 1.69082 10.5568 1.88082 10.6536C2.17702 10.8016 2.48336 10.9278 2.79748 11.031C2.89428 11.0634 2.97444 11.1337 3.02031 11.2263C3.06633 11.3189 3.07414 11.4263 3.04216 11.5248L3.04214 11.5252ZM3.04214 15.8726C3.01045 15.9713 2.94129 16.053 2.85013 16.0997C2.75911 16.1465 2.65348 16.1544 2.55653 16.1217C2.20723 16.0066 1.86632 15.8662 1.53686 15.7012C1.34687 15.6045 1.26974 15.3695 1.36481 15.1761C1.45973 14.9826 1.69082 14.9043 1.88082 15.0009C2.17702 15.1489 2.4835 15.2751 2.79748 15.3785C2.89428 15.4108 2.97444 15.4811 3.02031 15.5737C3.06633 15.6663 3.07414 15.7737 3.04216 15.8722L3.04214 15.8726Z" fill="white"/>
</svg>
