<svg width="25" height="20" viewBox="0 0 25 20" fill="none" xmlns="http://www.w3.org/2000/svg">
<path d="M24.5046 4.53378L22.432 2.48728C21.9658 2.02106 21.2144 2.02106 20.7482 2.48728L18.7534 4.50797C18.4166 4.0157 17.8726 3.67887 17.225 3.67887H11.2147V2.20212C11.2147 0.673702 8.4687 0 5.72259 0C2.97639 0.000180696 0.230469 0.673656 0.230469 2.20226V8.78245C0.230469 9.81861 1.52578 10.4663 3.2096 10.7773V18.1606C3.2096 19.1709 4.03869 20 5.04903 20H17.225C18.2353 20 19.0644 19.1709 19.0644 18.1606V11.684L24.5047 6.19187C24.9709 5.75131 24.945 5.00019 24.5046 4.53378ZM13.0799 12.5647L14.5306 13.9896L12.4841 14.9481C12.3546 15.0258 12.251 14.9481 12.1991 14.8962C12.1473 14.8444 12.0956 14.7408 12.1473 14.6113L13.0799 12.5647ZM15.9295 12.9791C15.8518 13.0568 15.7481 13.1345 15.6445 13.2122L13.8312 11.4246C13.9089 11.3211 13.9866 11.2173 14.0643 11.1396L19.2714 5.88067L21.1367 7.72011L15.9295 12.9791ZM5.72246 1.32127C8.31308 1.32127 9.68611 1.94306 9.86755 2.17617C9.66028 2.46115 8.28727 3.08298 5.72246 3.08298C3.13183 3.08298 1.7588 2.46119 1.57736 2.22808C1.78482 1.9431 3.15783 1.32127 5.72246 1.32127ZM1.55155 3.73064C2.61375 4.19686 4.16803 4.43016 5.72246 4.43016C7.27688 4.43016 8.83116 4.19704 9.89336 3.73064V5.4405C9.73795 5.72548 8.33889 6.37312 5.72246 6.37312C3.07997 6.37312 1.68113 5.72547 1.55155 5.49236V3.73064ZM1.55155 7.02078C2.61375 7.487 4.16803 7.7203 5.72246 7.7203C7.27688 7.7203 8.83116 7.48718 9.89336 7.02078V8.7565C9.71193 9.04148 8.31308 9.68913 5.72246 9.68913C3.07997 9.68913 1.68113 9.04147 1.55155 8.80836V7.02078ZM17.7171 18.1605C17.7171 18.4454 17.4839 18.6527 17.2248 18.6527H5.04885C4.76387 18.6527 4.53077 18.4196 4.53077 18.1605V10.9585C4.91929 10.9844 5.33382 11.0104 5.72255 11.0104C8.44275 11.0104 11.2147 10.3369 11.2147 8.80827V5.02605H17.2249C17.5099 5.02605 17.7172 5.25916 17.7172 5.51831V5.54416L13.1057 10.2073C12.5876 10.7254 12.1731 11.3472 11.8622 12.0207L10.9038 14.0672C10.6188 14.689 10.7483 15.3883 11.2146 15.8548C11.5254 16.1656 11.9141 16.321 12.3284 16.321C12.5616 16.321 12.7947 16.2691 13.002 16.1656L15.0485 15.2071C15.722 14.8963 16.3179 14.4559 16.836 13.9376L17.691 13.0569L17.6911 18.1604L17.7171 18.1605ZM22.0692 6.78762L20.204 4.94819L21.6028 3.54934L23.4681 5.38878L22.0692 6.78762Z" fill="white"/>
</svg>
