<svg width="599" height="44" viewBox="0 0 599 44" fill="none" xmlns="http://www.w3.org/2000/svg">
<path fill-rule="evenodd" clip-rule="evenodd" d="M51.2224 14.4717L36 5V39L51.2224 29.5283C55.979 26.5687 61.4692 25 67.0714 25H95L117.929 25C123.531 25 129.021 26.5686 133.778 29.5283L149 39V5L133.778 14.4717C129.021 17.4313 123.531 19 117.929 19L90 19L67.0714 19C61.4692 19 55.979 17.4313 51.2224 14.4717Z" fill="#1C9CA7"/>
<path fill-rule="evenodd" clip-rule="evenodd" d="M192.222 14.4717L177 5V39L192.222 29.5283C196.979 26.5687 202.469 25 208.071 25H236L255.929 25C261.531 25 267.021 26.5686 271.778 29.5283L287 39V5L271.778 14.4717C267.021 17.4313 261.531 19 255.929 19L228 19L208.071 19C202.469 19 196.979 17.4313 192.222 14.4717Z" fill="#1C9CA7"/>
<path fill-rule="evenodd" clip-rule="evenodd" d="M330.222 14.4717L315 5V39L330.222 29.5283C334.979 26.5687 340.469 25 346.071 25H374L393.929 25C399.531 25 405.021 26.5686 409.778 29.5283L425 39V5L409.778 14.4717C405.021 17.4313 399.531 19 393.929 19L366 19L346.071 19C340.469 19 334.979 17.4313 330.222 14.4717Z" fill="#1C9CA7"/>
<path fill-rule="evenodd" clip-rule="evenodd" d="M468.222 14.4717L453 5V39L468.222 29.5283C472.979 26.5687 478.469 25 484.071 25H512L531.929 25C537.531 25 543.021 26.5686 547.778 29.5283L563 39V5L547.778 14.4717C543.021 17.4313 537.531 19 531.929 19L504 19L484.071 19C478.469 19 472.979 17.4313 468.222 14.4717Z" fill="url(#paint0_linear_2381_10736)"/>
<circle cx="22" cy="22" r="22" fill="#1C9CA7"/>
<circle cx="163" cy="22" r="22" fill="#1C9CA7"/>
<circle cx="301" cy="22" r="22" fill="#1C9CA7"/>
<circle cx="439" cy="22" r="22" fill="#1C9CA7"/>
<circle cx="577" cy="22" r="22" fill="#546176"/>
<path d="M24.7988 13.3271V29H21.7051V16.8936L17.9883 18.0752V15.6367L24.4658 13.3271H24.7988Z" fill="white"/>
<path d="M168.957 26.583V29H158.258V26.9375L163.317 21.5127C163.826 20.9469 164.227 20.4492 164.521 20.0195C164.814 19.5827 165.025 19.1924 165.154 18.8486C165.29 18.4977 165.358 18.1647 165.358 17.8496C165.358 17.377 165.28 16.9723 165.122 16.6357C164.965 16.292 164.732 16.027 164.424 15.8408C164.123 15.6546 163.751 15.5615 163.307 15.5615C162.834 15.5615 162.426 15.6761 162.082 15.9053C161.745 16.1344 161.488 16.4531 161.309 16.8613C161.137 17.2695 161.051 17.7314 161.051 18.2471H157.946C157.946 17.3161 158.168 16.4639 158.612 15.6904C159.056 14.9098 159.683 14.2904 160.492 13.832C161.301 13.3665 162.261 13.1338 163.371 13.1338C164.467 13.1338 165.391 13.3128 166.143 13.6709C166.902 14.0218 167.475 14.5303 167.861 15.1963C168.255 15.8551 168.452 16.6429 168.452 17.5596C168.452 18.0752 168.37 18.5801 168.205 19.0742C168.04 19.5612 167.804 20.0482 167.496 20.5352C167.195 21.015 166.83 21.502 166.4 21.9961C165.971 22.4902 165.494 23.0023 164.972 23.5322L162.254 26.583H168.957Z" fill="white"/>
<path d="M299.427 19.8369H301.081C301.611 19.8369 302.048 19.7474 302.392 19.5684C302.735 19.3822 302.99 19.1243 303.154 18.7949C303.326 18.4583 303.412 18.068 303.412 17.624C303.412 17.223 303.333 16.8685 303.176 16.5605C303.025 16.2454 302.793 16.002 302.478 15.8301C302.162 15.651 301.765 15.5615 301.285 15.5615C300.906 15.5615 300.555 15.6367 300.232 15.7871C299.91 15.9375 299.652 16.1488 299.459 16.4209C299.266 16.693 299.169 17.0225 299.169 17.4092H296.064C296.064 16.5498 296.294 15.8014 296.752 15.1641C297.217 14.5267 297.84 14.029 298.621 13.6709C299.402 13.3128 300.261 13.1338 301.199 13.1338C302.259 13.1338 303.187 13.3057 303.981 13.6494C304.776 13.986 305.396 14.4837 305.84 15.1426C306.284 15.8014 306.506 16.6178 306.506 17.5918C306.506 18.0859 306.391 18.5658 306.162 19.0312C305.933 19.4896 305.604 19.9049 305.174 20.2773C304.751 20.6426 304.236 20.9362 303.627 21.1582C303.018 21.373 302.334 21.4805 301.575 21.4805H299.427V19.8369ZM299.427 22.1895V20.5889H301.575C302.427 20.5889 303.176 20.6855 303.82 20.8789C304.465 21.0723 305.006 21.3516 305.442 21.7168C305.879 22.0749 306.209 22.501 306.431 22.9951C306.653 23.4821 306.764 24.0228 306.764 24.6172C306.764 25.3477 306.624 25.9993 306.345 26.5723C306.065 27.138 305.672 27.6178 305.163 28.0117C304.662 28.4056 304.075 28.7064 303.401 28.9141C302.728 29.1146 301.994 29.2148 301.199 29.2148C300.54 29.2148 299.892 29.1253 299.255 28.9463C298.625 28.7601 298.052 28.4844 297.536 28.1191C297.028 27.7467 296.619 27.2812 296.312 26.7227C296.011 26.1569 295.86 25.4873 295.86 24.7139H298.965C298.965 25.1149 299.065 25.473 299.266 25.7881C299.466 26.1032 299.742 26.3503 300.093 26.5293C300.451 26.7083 300.848 26.7979 301.285 26.7979C301.779 26.7979 302.202 26.7083 302.553 26.5293C302.911 26.3431 303.183 26.0853 303.369 25.7559C303.562 25.4193 303.659 25.029 303.659 24.585C303.659 24.012 303.555 23.5537 303.348 23.21C303.14 22.859 302.843 22.6012 302.456 22.4365C302.069 22.2718 301.611 22.1895 301.081 22.1895H299.427Z" fill="white"/>
<path d="M445.215 23.1562V25.584H433.946L433.796 23.7041L440.316 13.3594H442.776L440.112 17.8174L436.868 23.1562H445.215ZM443.442 13.3594V29H440.349V13.3594H443.442Z" fill="white"/>
<path d="M575.169 21.8779L572.698 21.2871L573.59 13.3594H582.377V15.8623H576.136L575.749 19.332C575.957 19.2103 576.272 19.0814 576.694 18.9453C577.117 18.8021 577.59 18.7305 578.112 18.7305C578.871 18.7305 579.545 18.8486 580.132 19.085C580.719 19.3213 581.217 19.665 581.625 20.1162C582.04 20.5674 582.355 21.1188 582.57 21.7705C582.785 22.4222 582.893 23.1598 582.893 23.9834C582.893 24.6781 582.785 25.3405 582.57 25.9707C582.355 26.5938 582.03 27.1523 581.593 27.6465C581.156 28.1335 580.608 28.5166 579.949 28.7959C579.29 29.0752 578.51 29.2148 577.607 29.2148C576.934 29.2148 576.283 29.1146 575.652 28.9141C575.029 28.7135 574.467 28.4163 573.966 28.0225C573.472 27.6286 573.074 27.1523 572.773 26.5938C572.48 26.028 572.326 25.3835 572.312 24.6602H575.384C575.427 25.1042 575.541 25.4873 575.728 25.8096C575.921 26.1247 576.175 26.3682 576.49 26.54C576.805 26.7119 577.174 26.7979 577.597 26.7979C577.991 26.7979 578.327 26.7227 578.606 26.5723C578.886 26.4219 579.111 26.2142 579.283 25.9492C579.455 25.6771 579.58 25.362 579.659 25.0039C579.745 24.6387 579.788 24.2448 579.788 23.8223C579.788 23.3997 579.738 23.0166 579.638 22.6729C579.537 22.3291 579.383 22.0319 579.176 21.7812C578.968 21.5306 578.703 21.3372 578.381 21.2012C578.066 21.0651 577.697 20.9971 577.274 20.9971C576.701 20.9971 576.257 21.0866 575.942 21.2656C575.634 21.4447 575.377 21.6488 575.169 21.8779Z" fill="#8A95A7"/>
<defs>
<linearGradient id="paint0_linear_2381_10736" x1="453" y1="22" x2="565.92" y2="22" gradientUnits="userSpaceOnUse">
<stop stop-color="#1C9CA7"/>
<stop offset="0.494792" stop-color="#1C9CA7"/>
<stop offset="0.87116" stop-color="#536176"/>
</linearGradient>
</defs>
</svg>
