<svg width="23" height="20" viewBox="0 0 23 20" fill="none" xmlns="http://www.w3.org/2000/svg">
<path d="M22.4332 2.8237C22.4332 2.07479 22.1356 1.35655 21.6061 0.827059C21.0766 0.297563 20.3584 0 19.6097 0H2.82353C2.07479 0 1.35655 0.297563 0.827058 0.827059C0.297563 1.35655 0 2.07475 0 2.8237V17.1766V17.1765C0 17.9254 0.297563 18.6434 0.827058 19.1731C1.35655 19.7026 2.07475 20 2.82353 20H19.6097C20.3584 20 21.0766 19.7026 21.6061 19.1731C22.1356 18.6435 22.4332 17.9254 22.4332 17.1765V2.8237ZM21.4921 17.1766L21.4919 17.1765C21.4919 17.6758 21.2937 18.1545 20.9406 18.5076C20.5876 18.8606 20.1088 19.0589 19.6097 19.0589H2.82357C2.32446 19.0589 1.84572 18.8606 1.49265 18.5076C1.13961 18.1545 0.941348 17.6758 0.941348 17.1765V2.82353V2.8237C0.941348 2.32441 1.13962 1.84567 1.49265 1.4926C1.84569 1.13957 2.32446 0.941302 2.82357 0.941302H19.6097C20.1088 0.941302 20.5876 1.13957 20.9406 1.4926C21.2937 1.84564 21.4919 2.32441 21.4919 2.8237L21.4921 17.1766Z" fill="white"/>
<path d="M18.2195 2.80469H4.21694C3.71783 2.80469 3.23909 3.00296 2.88602 3.35599C2.53298 3.70903 2.33472 4.1878 2.33472 4.68708V6.08002C2.33472 6.57914 2.53299 7.05788 2.88602 7.41095C3.23906 7.76398 3.71783 7.96225 4.21694 7.96225H18.2195C18.7187 7.96225 19.1975 7.76398 19.5506 7.41095C19.9034 7.05791 20.1019 6.57914 20.1019 6.08002V4.68708C20.1019 4.1878 19.9034 3.70906 19.5506 3.35599C19.1975 3.00295 18.7187 2.80469 18.2195 2.80469ZM19.1606 6.08002C19.1606 6.3295 19.0614 6.56897 18.885 6.7454C18.7084 6.922 18.4691 7.02114 18.2194 7.02114H4.21692C3.96744 7.02114 3.72797 6.922 3.55154 6.7454C3.37494 6.56896 3.2758 6.3295 3.2758 6.08002V4.68708C3.2758 4.43744 3.37494 4.19796 3.55154 4.02154C3.72798 3.84494 3.96744 3.7458 4.21692 3.7458H18.2194C18.4691 3.7458 18.7084 3.84494 18.885 4.02154C19.0614 4.19797 19.1606 4.43743 19.1606 4.68708V6.08002Z" fill="white"/>
<path d="M8.68306 9.26367H4.21247C3.71319 9.26367 3.23445 9.46194 2.88138 9.81497C2.52834 10.168 2.33008 10.6468 2.33008 11.1461V15.8872C2.33008 16.3865 2.52835 16.8653 2.88138 17.2183C3.23442 17.5712 3.71319 17.7696 4.21247 17.7696H8.68306C9.18234 17.7696 9.66108 17.5712 10.0142 17.2183C10.3672 16.8653 10.5655 16.3865 10.5655 15.8872V11.1461C10.5655 10.6468 10.3672 10.168 10.0142 9.81497C9.66111 9.46194 9.18234 9.26367 8.68306 9.26367ZM9.62415 15.8851H9.62432C9.62432 16.1347 9.52502 16.374 9.34858 16.5505C9.17214 16.7271 8.93268 16.8262 8.68303 16.8262H4.21245C3.96281 16.8262 3.72333 16.7271 3.5469 16.5505C3.3703 16.374 3.27117 16.1347 3.27117 15.8851V11.146C3.27117 10.8964 3.3703 10.6571 3.5469 10.4805C3.72334 10.304 3.9628 10.2049 4.21245 10.2049H8.68303C8.93267 10.2049 9.17215 10.304 9.34858 10.4805C9.52502 10.6571 9.62432 10.8964 9.62432 11.146L9.62415 15.8851Z" fill="white"/>
<path d="M18.2194 9.26367H13.7488C13.2496 9.26367 12.7708 9.46194 12.4178 9.81497C12.0647 10.168 11.8665 10.6468 11.8665 11.1461V15.8872C11.8665 16.3865 12.0647 16.8653 12.4178 17.2183C12.7708 17.5712 13.2496 17.7696 13.7488 17.7696H18.2194C18.7187 17.7696 19.1975 17.5712 19.5505 17.2183C19.9034 16.8653 20.1018 16.3865 20.1018 15.8872V11.1461C20.1018 10.6468 19.9034 10.168 19.5505 9.81497C19.1975 9.46194 18.7187 9.26367 18.2194 9.26367ZM19.1605 15.8851C19.1605 16.1347 19.0614 16.374 18.885 16.5505C18.7084 16.7271 18.4691 16.8262 18.2194 16.8262H13.7488C13.4992 16.8262 13.2597 16.7271 13.0833 16.5505C12.9067 16.374 12.8075 16.1347 12.8075 15.8851V11.146C12.8075 10.8964 12.9067 10.6571 13.0833 10.4805C13.2597 10.304 13.4992 10.2049 13.7488 10.2049H18.2194C18.4691 10.2049 18.7084 10.304 18.885 10.4805C19.0614 10.6571 19.1605 10.8964 19.1605 11.146V15.8851Z" fill="white"/>
</svg>
