<svg width="21" height="21" viewBox="0 0 21 21" fill="none" xmlns="http://www.w3.org/2000/svg">
<path d="M20.7932 6.27094V6.24889V6.24913C20.7885 6.20235 20.7736 6.15752 20.7493 6.11735V6.0953C20.7493 6.08967 20.7469 6.08403 20.7427 6.07987C20.7388 6.07571 20.7332 6.0735 20.7273 6.0735C20.7273 6.05145 20.7052 6.02965 20.6834 6.00761C20.6614 5.98556 20.6614 5.96376 20.6396 5.96376L20.508 5.83222C20.486 5.81017 20.4642 5.81017 20.4421 5.78837L20.3983 5.76632C20.3762 5.76632 20.3544 5.74428 20.3324 5.74428L20.2006 5.70019H20.025V5.70043C20.0007 5.69749 19.9767 5.70558 19.9591 5.72223L19.8932 5.74428H19.8711L11.07 9.87054L15.0866 0.981652V0.959606C15.0866 0.93756 15.1086 0.915759 15.1086 0.893712C15.1086 0.871666 15.1307 0.849865 15.1307 0.827818V0.564494H15.1304C15.1334 0.540488 15.1253 0.516238 15.1084 0.4986C15.1084 0.476555 15.0863 0.454753 15.0863 0.432706C15.0863 0.41066 15.0643 0.38886 15.0643 0.366813L15.0645 0.367058C15.0626 0.343787 15.044 0.32517 15.0207 0.323211L14.8453 0.147822C14.8232 0.125777 14.8014 0.125776 14.7794 0.103975L14.7574 0.0819296H14.7353C14.6915 0.0598839 14.6476 0.059884 14.6035 0.0380828L14.5817 0.0378379C13.2869 -0.137795 12.1015 0.301162 11.136 1.2888C9.16065 3.37385 8.50222 7.74148 8.98501 10.8142L7.44865 11.5385C7.50009 10.8578 7.27939 10.1842 6.83504 9.66587C6.3907 9.14755 5.75897 8.8264 5.07821 8.77328C4.67355 8.75099 4.2689 8.8186 3.89315 8.97071L1.52272 9.95837C0.69528 10.3265 0.121563 11.1018 0.0113214 12.0008C-0.0986625 12.8998 0.270727 13.7907 0.984742 14.3477C1.6988 14.905 2.65291 15.0466 3.49796 14.721L5.84632 13.7554H5.89017L8.43625 12.5701L7.42652 14.8308C7.40448 14.8747 7.40448 14.8967 7.38267 14.9405C7.36063 14.9844 7.31678 15.0723 7.29498 15.138L6.28526 17.5084C5.97098 18.3552 6.12016 19.3044 6.67939 20.0135C7.23862 20.7226 8.12682 21.0894 9.02336 20.9814C9.92015 20.8731 10.6954 20.3058 11.07 19.4837L12.0576 17.1133V17.1135C12.3185 16.4789 12.317 15.7667 12.0539 15.1331C11.7906 14.4996 11.2868 13.9962 10.653 13.7334C10.2631 13.5779 9.84173 13.5176 9.42384 13.5578L10.1482 11.9555V11.9558C10.7809 12.0432 11.4188 12.0873 12.0576 12.0873C14.779 12.0873 17.8517 11.3412 19.5199 9.76073C20.5296 8.79514 20.9903 7.58801 20.7929 6.27114L20.7932 6.27094ZM12.1018 2.21058C12.4629 1.80395 12.9364 1.5137 13.4625 1.37649L10.1485 8.72904C10.1485 6.29295 10.8069 3.59336 12.1017 2.21051L12.1018 2.21058ZM2.97149 13.5357C2.66578 13.6753 2.31769 13.6895 2.00195 13.5754C1.68596 13.4615 1.42729 13.228 1.28131 12.9255C1.13728 12.6201 1.12136 12.2698 1.23673 11.9525C1.3521 11.6351 1.58946 11.3771 1.89592 11.2355C1.91796 11.2135 1.96181 11.2135 1.98361 11.1917L4.35404 10.204C4.66538 10.0754 5.01493 10.0774 5.32458 10.2094C5.63444 10.3415 5.87768 10.5928 6.00013 10.9063C6.11747 11.1968 6.12408 11.5204 6.019 11.8156C5.91366 12.1107 5.70423 12.3574 5.42964 12.5086L5.3199 12.5524L2.97149 13.5357ZM10.1484 14.9623C10.4554 15.0924 10.6989 15.3378 10.826 15.6457C10.9534 15.9538 10.9544 16.2995 10.8287 16.6084L9.84105 18.9788C9.66125 19.3815 9.285 19.6615 8.8475 19.7181C8.41025 19.7749 7.97472 19.5998 7.69843 19.2563C7.42188 18.9127 7.34398 18.4502 7.49267 18.035C7.49267 18.0227 7.50247 18.0129 7.51472 18.0129L8.50237 15.6425C8.62093 15.3265 8.8654 15.0737 9.17749 14.9446C9.48956 14.8158 9.8413 14.8222 10.1484 14.9623ZM18.6203 8.79482C17.2596 10.0679 14.6476 10.7263 12.2774 10.7701L19.4543 7.41204H19.4541C19.3316 7.95069 19.0391 8.43544 18.62 8.79482H18.6203Z" fill="white"/>
</svg>
