<svg width="18" height="18" viewBox="0 0 18 18" fill="none" xmlns="http://www.w3.org/2000/svg">
<path d="M6.64291 3.77119H13.0106V2.87175C13.0106 2.41722 12.8245 2.00415 12.5243 1.70402C12.224 1.40377 11.8109 1.21764 11.3571 1.21764H2.87175C2.41722 1.21764 2.00415 1.40377 1.70402 1.70402C1.40377 2.00427 1.21764 2.41735 1.21764 2.87175V11.3571C1.21764 11.811 1.40378 12.2247 1.70402 12.5243C2.00427 12.8245 2.41735 13.0106 2.87175 13.0106H3.77119V6.64291C3.77119 5.85251 4.09432 5.13464 4.61423 4.6142C5.13415 4.09375 5.85241 3.77116 6.64294 3.77116L6.64291 3.77119ZM14.2288 3.77119H15.1283C15.9187 3.77119 16.6365 4.09432 17.157 4.61423C17.6769 5.13414 18 5.85241 18 6.64294V15.1283C18 15.9187 17.6769 16.6365 17.157 17.157C16.6365 17.6774 15.9188 18 15.1283 18H6.64294C5.85254 18 5.13468 17.6769 4.61423 17.157C4.09379 16.637 3.77119 15.9188 3.77119 15.1283V14.2288H2.87175C2.08135 14.2288 1.36349 13.9057 0.843041 13.3858C0.323128 12.8659 0 12.1476 0 11.3571V2.87175C0 2.08135 0.323125 1.36349 0.843041 0.843041C1.36349 0.323128 2.08122 0 2.87175 0H11.3571C12.1475 0 12.8653 0.323125 13.3858 0.843041C13.9062 1.36349 14.2288 2.08122 14.2288 2.87175V3.77119ZM15.1283 4.98933H6.64294C6.18904 4.98933 5.77534 5.17546 5.47574 5.47571C5.17549 5.77595 4.98937 6.18904 4.98937 6.64344V15.1288C4.98937 15.5826 5.1755 15.9963 5.47574 16.2965C5.77599 16.5967 6.18908 16.7829 6.64294 16.7829H15.1283C15.5828 16.7829 15.9958 16.5967 16.296 16.2965C16.5962 15.9962 16.7824 15.5831 16.7824 15.1288V6.64344C16.7824 6.18954 16.5962 5.77584 16.296 5.47571C15.9957 5.17546 15.5826 4.98933 15.1283 4.98933Z" fill="white"/>
</svg>
