<svg width="16" height="19" viewBox="0 0 16 19" fill="none" xmlns="http://www.w3.org/2000/svg">
<path d="M7.12507 0C6.34371 0 5.70006 0.643659 5.70006 1.42501V1.89991H2.37513C1.0675 1.89991 0 2.96741 0 4.27504V16.625C0 17.9325 1.0675 19 2.37513 19H12.8254C14.1328 19 15.2003 17.9325 15.2003 16.625V4.27504C15.2003 2.96741 14.1328 1.89991 12.8252 1.89991H9.50028V1.42501C9.50028 0.643659 8.85662 0 8.07527 0H7.12507ZM7.12507 0.949955H8.07502C8.34317 0.949955 8.55008 1.15703 8.55008 1.42501V1.89991H6.65017V1.42501C6.65017 1.15703 6.85709 0.949955 7.12507 0.949955ZM2.37489 2.85003H12.8251C13.6227 2.85003 14.2501 3.47744 14.2501 4.27504V16.625C14.2501 17.4226 13.6229 18.05 12.8251 18.05H2.37529C1.57753 18.05 0.950281 17.4226 0.950281 16.625V4.27504C0.950281 3.47728 1.57753 2.85003 2.37529 2.85003H2.37489Z" fill="white"/>
<path d="M6.17525 3.80078C5.91299 3.80078 5.7002 4.01342 5.7002 4.27584C5.7002 4.4018 5.75029 4.52251 5.83936 4.61174C5.92842 4.7008 6.04929 4.75074 6.17525 4.75074H9.02528C9.15125 4.75074 9.27211 4.7008 9.36118 4.61174C9.45024 4.52251 9.50034 4.4018 9.50034 4.27584C9.50034 4.14988 9.45024 4.02901 9.36118 3.93994C9.27211 3.85088 9.15125 3.80078 9.02528 3.80078H6.17525Z" fill="white"/>
</svg>
