<svg width="19" height="19" viewBox="0 0 19 19" fill="none" xmlns="http://www.w3.org/2000/svg">
<path d="M16.6667 0H2C1.46949 0 0.960877 0.210713 0.585715 0.585715C0.210713 0.960866 0 1.46949 0 2V16.6667C0 17.1972 0.210713 17.7058 0.585715 18.081C0.960866 18.456 1.46949 18.6667 2 18.6667H16.6667C17.1972 18.6667 17.7058 18.456 18.081 18.081C18.456 17.7058 18.6667 17.1972 18.6667 16.6667V2C18.6667 1.46949 18.456 0.960877 18.081 0.585715C17.7058 0.210713 17.1972 0 16.6667 0ZM17.3334 16.6667C17.3334 16.8435 17.2631 17.0131 17.1381 17.1381C17.0131 17.2631 16.8435 17.3334 16.6667 17.3334H2C1.82322 17.3334 1.65357 17.2631 1.52857 17.1381C1.40357 17.0131 1.33333 16.8435 1.33333 16.6667V2C1.33333 1.82322 1.40357 1.65357 1.52857 1.52857C1.65357 1.40357 1.82322 1.33333 2 1.33333H16.6667C16.8435 1.33333 17.0131 1.40357 17.1381 1.52857C17.2631 1.65357 17.3334 1.82322 17.3334 2V16.6667Z" fill="white"/>
<path d="M14 4H4.66667C4.48988 4 4.32024 4.07024 4.19524 4.19524C4.07024 4.32024 4 4.48988 4 4.66667V6C4 6.23825 4.12708 6.45833 4.33333 6.57737C4.53959 6.69642 4.79375 6.69642 5 6.57737C5.20625 6.45833 5.33333 6.23824 5.33333 6V5.33333H8.66667V13.3333H8C7.76176 13.3333 7.54168 13.4604 7.42263 13.6667C7.30358 13.8729 7.30358 14.1271 7.42263 14.3333C7.54168 14.5396 7.76177 14.6667 8 14.6667H10.6667C10.9049 14.6667 11.125 14.5396 11.244 14.3333C11.3631 14.1271 11.3631 13.8729 11.244 13.6667C11.125 13.4604 10.9049 13.3333 10.6667 13.3333H10V5.33333H13.3333V6C13.3333 6.23825 13.4604 6.45833 13.6667 6.57737C13.8729 6.69642 14.1271 6.69642 14.3333 6.57737C14.5396 6.45833 14.6667 6.23824 14.6667 6V4.66667C14.6667 4.48988 14.5964 4.32024 14.4714 4.19524C14.3464 4.07024 14.1768 4 14 4Z" fill="white"/>
</svg>
