<svg width="77" height="76" viewBox="0 0 77 76" fill="none" xmlns="http://www.w3.org/2000/svg">
<path d="M23.4947 34.4876H10.7949C7.95155 34.5443 5.20476 33.4543 3.17423 31.4636C1.14317 29.4728 -0.00072536 26.7479 3.45089e-07 23.9039V11.204C3.45089e-07 8.39757 1.11477 5.70593 3.09985 3.72094C5.08429 1.73596 7.77647 0.621094 10.583 0.621094H23.2828C26.09 0.621094 28.7816 1.73587 30.7666 3.72094C32.7511 5.70593 33.8665 8.39757 33.8665 11.204V23.9039C33.8665 26.6748 32.7807 29.3354 30.8417 31.3141C28.9027 33.2927 26.2649 34.4324 23.4947 34.4876ZM10.7949 4.85522V4.85451C9.10321 4.79781 7.45898 5.41864 6.22727 6.57877C4.99485 7.7396 4.27767 9.34334 4.23304 11.0357V23.7355C4.23304 25.4194 4.90205 27.0346 6.09338 28.2251C7.28399 29.4164 8.89914 30.0854 10.583 30.0854H23.2828C24.9674 30.0854 26.5826 29.4164 27.7731 28.2251C28.9637 27.0345 29.6327 25.4193 29.6327 23.7355V11.0357C29.6327 9.35111 28.9637 7.7359 27.7731 6.54538C26.5825 5.35487 24.9673 4.68577 23.2828 4.68577L10.7949 4.85522ZM65.8269 34.4876H53.127C50.2837 34.5443 47.5375 33.4543 45.5064 31.4636C43.4761 29.4728 42.3322 26.7479 42.3322 23.9039V11.204C42.3322 8.39757 43.4477 5.70593 45.432 3.72094C47.417 1.73596 50.1086 0.621094 52.9159 0.621094H65.6157C68.3931 0.621094 71.0599 1.71248 73.04 3.66071C75.0194 5.60886 76.154 8.25805 76.1986 11.0353V23.7352C76.244 26.5785 75.1434 29.3204 73.1449 31.3431C71.1456 33.3656 68.4171 34.499 65.5732 34.4876H65.8269ZM53.127 4.85522V4.85451C51.4361 4.79781 49.7912 5.41864 48.5594 6.57877C47.3277 7.7396 46.6098 9.34334 46.5659 11.0357V23.7355C46.5659 25.4194 47.2349 27.0346 48.4256 28.2251C49.6162 29.4164 51.2313 30.0854 52.9159 30.0854H65.6157C67.2705 30.0854 68.8609 29.4398 70.0465 28.2853C71.2328 27.1309 71.921 25.5591 71.9656 23.9043V11.2044C71.9656 9.52058 71.2966 7.90537 70.1053 6.71485C68.9146 5.52354 67.2995 4.85451 65.6157 4.85451L53.127 4.85522ZM25.1039 75.127H9.0597C6.6685 75.1384 4.3702 74.1986 2.6715 72.5161C0.972047 70.833 0.0117928 68.5438 0.000362998 66.1521V50.1078C0.0117021 47.7203 0.964897 45.4332 2.65372 43.7445C4.34255 42.0557 6.6295 41.1026 9.01707 41.0911H25.1038C27.4879 41.1025 29.7706 42.0571 31.4522 43.7474C33.134 45.4369 34.078 47.7239 34.078 50.108V66.1523C34.078 68.5327 33.1326 70.8155 31.4495 72.4985C29.7664 74.1816 27.4837 75.127 25.1038 75.127H25.1039ZM9.0597 45.4947V45.494C7.81523 45.4933 6.61897 45.9724 5.71964 46.832C4.82102 47.6917 4.28808 48.866 4.23351 50.1084V66.1526C4.24485 67.4141 4.75369 68.6204 5.64949 69.5083C6.54528 70.3962 7.75566 70.8945 9.01712 70.8938H25.1038C26.361 70.8938 27.5672 70.3949 28.4566 69.5055C29.3453 68.6161 29.8449 67.4105 29.8449 66.1527V50.1085C29.8449 48.8477 29.3467 47.6372 28.4587 46.7414C27.5707 45.8449 26.3652 45.336 25.1038 45.3254L9.0597 45.4947ZM72.5589 56.1627L61.2558 56.162V44.6054C61.2558 44.0441 61.0326 43.5055 60.6357 43.1086C60.2389 42.7117 59.701 42.4885 59.139 42.4885C57.9703 42.4885 57.0228 43.4367 57.0228 44.6054V55.9928H45.593C44.4236 55.9928 43.4761 56.941 43.4761 58.1096C43.4761 58.6709 43.6993 59.2095 44.0962 59.6064C44.4931 60.0033 45.0317 60.2265 45.593 60.2265H57.0228V71.6564C57.0228 72.2177 57.2453 72.7556 57.6429 73.1531C58.0398 73.55 58.5777 73.7726 59.139 73.7726C59.701 73.7726 60.2389 73.55 60.6357 73.1531C61.0326 72.7556 61.2559 72.2177 61.2559 71.6564V60.2265H72.6433C73.2053 60.2265 73.7432 60.0033 74.14 59.6064C74.5369 59.2095 74.7601 58.6709 74.7601 58.1096C74.7601 57.5484 74.5369 57.0098 74.14 56.6129C73.7432 56.216 73.2053 55.9928 72.6433 55.9928L72.5589 56.1627Z" fill="#1C9CA7"/>
</svg>
