<svg width="30" height="30" viewBox="0 0 30 30" fill="none" xmlns="http://www.w3.org/2000/svg">
<g clip-path="url(#clip0_3039_49938)">
<path d="M15.1545 18.4734C17.1583 18.4734 18.7826 16.8491 18.7826 14.8453C18.7826 12.8416 17.1583 11.2173 15.1545 11.2173C13.1508 11.2173 11.5265 12.8416 11.5265 14.8453C11.5265 16.8491 13.1508 18.4734 15.1545 18.4734Z" stroke="white" stroke-width="2" stroke-linecap="round" stroke-linejoin="round"/>
<path d="M24.1037 18.4734C23.9427 18.8381 23.8947 19.2428 23.9658 19.6351C24.037 20.0274 24.224 20.3894 24.5028 20.6744L24.5754 20.747C24.8002 20.9716 24.9786 21.2383 25.1004 21.532C25.2221 21.8256 25.2847 22.1403 25.2847 22.4582C25.2847 22.776 25.2221 23.0908 25.1004 23.3844C24.9786 23.678 24.8002 23.9448 24.5754 24.1694C24.3507 24.3943 24.084 24.5727 23.7904 24.6944C23.4967 24.8161 23.182 24.8788 22.8641 24.8788C22.5463 24.8788 22.2315 24.8161 21.9379 24.6944C21.6443 24.5727 21.3775 24.3943 21.1529 24.1694L21.0803 24.0969C20.7953 23.8181 20.4333 23.631 20.041 23.5599C19.6487 23.4888 19.2441 23.5368 18.8793 23.6978C18.5216 23.8511 18.2166 24.1056 18.0017 24.4301C17.7868 24.7545 17.6715 25.1347 17.67 25.5239V25.7295C17.67 26.371 17.4152 26.9862 16.9616 27.4398C16.508 27.8933 15.8928 28.1482 15.2513 28.1482C14.6098 28.1482 13.9946 27.8933 13.541 27.4398C13.0874 26.9862 12.8326 26.371 12.8326 25.7295V25.6206C12.8232 25.2203 12.6936 24.8321 12.4607 24.5065C12.2278 24.1808 11.9023 23.9327 11.5265 23.7945C11.1617 23.6335 10.7571 23.5855 10.3648 23.6566C9.97249 23.7278 9.61048 23.9148 9.32547 24.1936L9.2529 24.2662C9.02827 24.491 8.76152 24.6694 8.46789 24.7912C8.17427 24.9129 7.85953 24.9755 7.54167 24.9755C7.22382 24.9755 6.90908 24.9129 6.61546 24.7912C6.32183 24.6694 6.05508 24.491 5.83044 24.2662C5.60556 24.0415 5.42716 23.7748 5.30544 23.4811C5.18372 23.1875 5.12107 22.8728 5.12107 22.5549C5.12107 22.2371 5.18372 21.9223 5.30544 21.6287C5.42716 21.3351 5.60556 21.0683 5.83044 20.8437L5.90301 20.7711C6.18181 20.4861 6.36883 20.1241 6.43996 19.7318C6.5111 19.3395 6.46307 18.9349 6.30209 18.5701C6.14879 18.2124 5.89424 17.9074 5.56979 17.6925C5.24533 17.4776 4.86513 17.3623 4.47597 17.3608H4.27038C3.6289 17.3608 3.0137 17.1059 2.56011 16.6524C2.10651 16.1988 1.85168 15.5836 1.85168 14.9421C1.85168 14.3006 2.10651 13.6854 2.56011 13.2318C3.0137 12.7782 3.6289 12.5234 4.27038 12.5234H4.37923C4.77951 12.514 5.16773 12.3844 5.4934 12.1515C5.81907 11.9186 6.06713 11.5931 6.20534 11.2173C6.36633 10.8525 6.41435 10.4479 6.34321 10.0556C6.27208 9.66328 6.08506 9.30128 5.80626 9.01626L5.7337 8.9437C5.50881 8.71907 5.33041 8.45231 5.20869 8.15869C5.08698 7.86506 5.02432 7.55032 5.02432 7.23247C5.02432 6.91462 5.08698 6.59988 5.20869 6.30625C5.33041 6.01263 5.50881 5.74587 5.7337 5.52124C5.95833 5.29636 6.22508 5.11796 6.51871 4.99624C6.81233 4.87452 7.12707 4.81187 7.44493 4.81187C7.76278 4.81187 8.07752 4.87452 8.37114 4.99624C8.66477 5.11796 8.93152 5.29636 9.15616 5.52124L9.22872 5.5938C9.51374 5.8726 9.87574 6.05963 10.268 6.13076C10.6604 6.20189 11.065 6.15387 11.4297 5.99289H11.5265C11.8842 5.83959 12.1892 5.58504 12.4041 5.26058C12.619 4.93613 12.7343 4.55592 12.7358 4.16677V3.96118C12.7358 3.3197 12.9907 2.7045 13.4443 2.2509C13.8978 1.79731 14.5131 1.54248 15.1545 1.54248C15.796 1.54248 16.4112 1.79731 16.8648 2.2509C17.3184 2.7045 17.5732 3.3197 17.5732 3.96118V4.07002C17.5748 4.45917 17.6901 4.83938 17.905 5.16384C18.1198 5.48829 18.4249 5.74284 18.7826 5.89614C19.1473 6.05712 19.552 6.10514 19.9443 6.03401C20.3366 5.96288 20.6986 5.77585 20.9836 5.49705L21.0562 5.42449C21.2808 5.19961 21.5475 5.02121 21.8412 4.89949C22.1348 4.77777 22.4495 4.71512 22.7674 4.71512C23.0852 4.71512 23.4 4.77777 23.6936 4.89949C23.9872 5.02121 24.254 5.19961 24.4786 5.42449C24.7035 5.64912 24.8819 5.91588 25.0036 6.20951C25.1253 6.50313 25.188 6.81787 25.188 7.13572C25.188 7.45358 25.1253 7.76831 25.0036 8.06194C24.8819 8.35557 24.7035 8.62232 24.4786 8.84695L24.4061 8.91951C24.1273 9.20453 23.9402 9.56653 23.8691 9.95884C23.798 10.3511 23.846 10.7558 24.007 11.1205V11.2173C24.1603 11.575 24.4148 11.88 24.7393 12.0949C25.0637 12.3098 25.4439 12.4251 25.8331 12.4266H26.0387C26.6802 12.4266 27.2954 12.6815 27.749 13.135C28.2025 13.5886 28.4574 14.2038 28.4574 14.8453C28.4574 15.4868 28.2025 16.102 27.749 16.5556C27.2954 17.0092 26.6802 17.264 26.0387 17.264H25.9298C25.5407 17.2656 25.1605 17.3809 24.836 17.5958C24.5116 17.8106 24.257 18.1157 24.1037 18.4734Z" stroke="white" stroke-width="2" stroke-linecap="round" stroke-linejoin="round"/>
</g>
<defs>
<clipPath id="clip0_3039_49938">
<rect width="29.0244" height="29.0244" fill="white" transform="translate(0.642334 0.333252)"/>
</clipPath>
</defs>
</svg>
