<svg width="23" height="22" viewBox="0 0 23 22" fill="none" xmlns="http://www.w3.org/2000/svg">
<path d="M13.6087 3.08148L14.1062 3.03173V3.03173L13.6087 3.08148ZM13.5063 2.45932L13.9699 2.27223L13.9699 2.27223L13.5063 2.45932ZM13.8054 4.19099L13.3705 4.4376V4.4376L13.8054 4.19099ZM14.9416 4.66163L14.8085 4.17969L14.8085 4.17969L14.9416 4.66163ZM15.8653 4.0162L15.5653 3.6162L15.5568 3.62253L15.5486 3.62922L15.8653 4.0162ZM15.8653 4.01619L16.1653 4.41619L16.1737 4.40985L16.1819 4.40317L15.8653 4.01619ZM16.3776 3.6487L16.5732 4.10886L16.5732 4.10886L16.3776 3.6487ZM17.2496 3.69219L17.49 3.25378L17.49 3.25378L17.2496 3.69219ZM17.7228 4.10885L18.0764 3.75529V3.75529L17.7228 4.10885ZM18.5418 4.92786L18.1882 5.28149L18.1959 5.28885L18.5418 4.92786ZM18.5418 4.92787L18.8955 4.57424L18.8878 4.56688L18.5418 4.92787ZM18.9585 5.40111L18.5201 5.6415L18.5201 5.64151L18.9585 5.40111ZM19.002 6.27306L19.4621 6.46863V6.46863L19.002 6.27306ZM18.6345 6.78542L18.2475 6.4688L18.2475 6.4688L18.6345 6.78542ZM17.989 7.70909L17.5071 7.57592V7.57592L17.989 7.70909ZM18.4597 8.8453L18.7063 8.41036H18.7063L18.4597 8.8453ZM19.5692 9.04203L19.5195 9.53955L19.5692 9.04203ZM20.1914 9.14446L20.0043 9.60814V9.60814L20.1914 9.14446ZM20.7772 9.79176L21.2572 9.65173L21.2572 9.65173L20.7772 9.79176ZM20.7772 12.2085L20.2972 12.0685V12.0685L20.7772 12.2085ZM20.1913 12.8559L20.3784 13.3196L20.3784 13.3196L20.1913 12.8559ZM19.5693 12.9583L19.5195 12.4608V12.4608L19.5693 12.9583ZM18.4602 13.1549L18.2136 12.7199L18.4602 13.1549ZM17.9894 14.2914L18.4713 14.1581V14.1581L17.9894 14.2914ZM18.6346 15.2146L18.2476 15.5312L18.2634 15.5505L18.2811 15.5682L18.6346 15.2146ZM18.6346 15.2146L19.0216 14.898L19.0058 14.8787L18.9882 14.8611L18.6346 15.2146ZM19.002 15.7267L19.4621 15.5311L19.4621 15.5311L19.002 15.7267ZM18.9585 16.5989L18.5201 16.3585L18.5201 16.3585L18.9585 16.5989ZM18.542 17.072L18.1884 16.7184L18.1884 16.7184L18.542 17.072ZM17.7228 17.8911L17.3693 17.5375L17.3693 17.5375L17.7228 17.8911ZM17.2496 18.3077L17.0092 17.8693L17.0092 17.8693L17.2496 18.3077ZM16.3777 18.3512L16.5732 17.8911L16.5732 17.8911L16.3777 18.3512ZM15.8653 17.9837L16.1819 17.5967L16.1738 17.5901L16.1653 17.5837L15.8653 17.9837ZM15.8653 17.9837L15.5487 18.3707L15.5569 18.3774L15.5653 18.3837L15.8653 17.9837ZM14.9417 17.3383L15.0748 16.8563H15.0748L14.9417 17.3383ZM13.8054 17.8089L13.3705 17.5623L13.8054 17.8089ZM13.6087 18.9186L14.1062 18.9684L13.6087 18.9186ZM13.5062 19.5411L13.9699 19.7282L13.9699 19.7282L13.5062 19.5411ZM12.859 20.1268L12.9991 20.6068H12.9991L12.859 20.1268ZM10.4422 20.1268L10.3021 20.6068L10.4422 20.1268ZM9.79485 19.541L10.2585 19.3539L10.2585 19.3539L9.79485 19.541ZM9.69242 18.9188L9.1949 18.9686L9.69242 18.9188ZM9.49569 17.8093L9.06074 18.0559L9.06074 18.0559L9.49569 17.8093ZM8.35949 17.3386L8.49265 17.8206H8.49265L8.35949 17.3386ZM7.43579 17.9841L7.73579 18.3841L7.74424 18.3778L7.75241 18.3711L7.43579 17.9841ZM7.43578 17.9841L7.13578 17.5841L7.12733 17.5905L7.11916 17.5971L7.43578 17.9841ZM6.92339 18.3516L7.11896 18.8118L7.11897 18.8118L6.92339 18.3516ZM6.05147 18.3082L5.81108 18.7466H5.81109L6.05147 18.3082ZM5.57819 17.8915L5.93175 17.5379H5.93175L5.57819 17.8915ZM4.75921 17.0725L4.40565 17.426H4.40565L4.75921 17.0725ZM4.34253 16.5992L4.78095 16.3588H4.78095L4.34253 16.5992ZM4.29904 15.7273L4.75921 15.9229L4.75921 15.9229L4.29904 15.7273ZM4.66657 15.2149L5.05354 15.5315H5.05354L4.66657 15.2149ZM5.31202 14.2912L5.79396 14.4244H5.79396L5.31202 14.2912ZM4.84138 13.155L4.59476 13.59H4.59476L4.84138 13.155ZM3.73187 12.9583L3.78162 12.4608H3.78162L3.73187 12.9583ZM3.10971 12.8559L2.92262 13.3195H2.92262L3.10971 12.8559ZM2.5239 12.2086L2.04391 12.3486L2.04391 12.3486L2.5239 12.2086ZM2.48389 11.5793H2.98389H2.48389ZM2.48389 10.4211H1.98389H2.48389ZM2.52393 9.79169L3.00391 9.93175H3.00391L2.52393 9.79169ZM3.10963 9.14449L2.9225 8.68083H2.9225L3.10963 9.14449ZM3.73197 9.04202V8.54202H3.70703L3.68222 8.5445L3.73197 9.04202ZM3.73198 9.04202V9.54202H3.75692L3.78173 9.53954L3.73198 9.04202ZM4.84184 8.84521L5.08852 9.28012H5.08852L4.84184 8.84521ZM5.3124 7.70918L5.79435 7.57608V7.57608L5.3124 7.70918ZM4.66672 6.78516L5.0537 6.46854L5.0537 6.46854L4.66672 6.78516ZM4.29904 6.27252L4.75923 6.077L4.29904 6.27252ZM4.34251 5.40081L3.90406 5.16048H3.90406L4.34251 5.40081ZM6.05152 3.69176L6.2919 4.13019H6.2919L6.05152 3.69176ZM6.92343 3.64828L6.72786 4.10844V4.10844L6.92343 3.64828ZM7.4359 4.01586L7.75252 3.62888L7.4359 4.01586ZM8.35938 4.66123L8.22614 5.14316L8.22614 5.14316L8.35938 4.66123ZM9.4958 4.19051L9.06082 3.94395V3.94395L9.4958 4.19051ZM9.69243 3.08136L9.19491 3.03161V3.03161L9.69243 3.08136ZM9.79481 2.45941L9.33112 2.27236V2.27236L9.79481 2.45941ZM10.4423 1.87348L10.3023 1.39348V1.39348L10.4423 1.87348ZM12.8589 1.87351L12.999 1.39352L12.999 1.39352L12.8589 1.87351ZM14.1062 3.03173C14.0769 2.73901 14.0568 2.48746 13.9699 2.27223L13.0426 2.64641C13.0627 2.69618 13.0752 2.77107 13.1112 3.13123L14.1062 3.03173ZM14.2404 3.94437C14.2339 3.93294 14.211 3.88278 14.1848 3.7196C14.1593 3.56052 14.1377 3.34664 14.1062 3.03173L13.1112 3.13123C13.1414 3.43356 13.1661 3.6826 13.1975 3.87805C13.2282 4.0694 13.2728 4.26537 13.3705 4.4376L14.2404 3.94437ZM14.8085 4.17969C14.5875 4.24074 14.3534 4.14375 14.2404 3.94437L13.3705 4.4376C13.7096 5.03575 14.412 5.32671 15.0748 5.14357L14.8085 4.17969ZM15.5486 3.62922C15.3037 3.82962 15.1372 3.96559 15.0067 4.06002C14.8728 4.15689 14.8211 4.17619 14.8085 4.17969L15.0748 5.14357C15.2656 5.09084 15.4358 4.98383 15.5928 4.87024C15.7532 4.75421 15.9467 4.59557 16.1819 4.40318L15.5486 3.62922ZM15.5653 3.61619L15.5653 3.6162L16.1653 4.4162L16.1653 4.41619L15.5653 3.61619ZM16.182 3.18854C15.9684 3.27932 15.7763 3.44294 15.5487 3.62921L16.1819 4.40317C16.462 4.17398 16.5238 4.12986 16.5732 4.10886L16.182 3.18854ZM17.49 3.25378C17.087 3.03281 16.605 3.00877 16.182 3.18854L16.5732 4.10886C16.7142 4.04894 16.8749 4.05695 17.0092 4.13061L17.49 3.25378ZM18.0764 3.75529C17.8684 3.54728 17.6935 3.36536 17.49 3.25378L17.0092 4.13061C17.0562 4.15641 17.1133 4.20646 17.3693 4.4624L18.0764 3.75529ZM18.8954 4.5743L18.0764 3.75529L17.3693 4.4624L18.1883 5.28141L18.8954 4.5743ZM18.8878 4.56688L18.8878 4.56686L18.1959 5.28885L18.1959 5.28887L18.8878 4.56688ZM19.3969 5.16072C19.2853 4.95722 19.1034 4.78232 18.8954 4.57432L18.1883 5.28142C18.4442 5.53736 18.4943 5.59445 18.5201 5.6415L19.3969 5.16072ZM19.4621 6.46863C19.6419 6.04569 19.6179 5.56368 19.3969 5.16072L18.5201 5.64151C18.5937 5.77583 18.6017 5.9365 18.5418 6.07748L19.4621 6.46863ZM19.0215 7.10204C19.2077 6.87436 19.3714 6.68223 19.4621 6.46863L18.5418 6.07748C18.5208 6.12688 18.4767 6.18866 18.2475 6.4688L19.0215 7.10204ZM18.471 7.84225C18.4745 7.82959 18.4938 7.77795 18.5906 7.64404C18.6851 7.51351 18.821 7.34699 19.0215 7.10204L18.2475 6.4688C18.0551 6.70396 17.8965 6.89752 17.7804 7.05791C17.6668 7.21494 17.5598 7.38508 17.5071 7.57592L18.471 7.84225ZM18.7063 8.41036C18.5069 8.2973 18.4099 8.06317 18.471 7.84225L17.5071 7.57592C17.324 8.23868 17.6149 8.94109 18.213 9.28024L18.7063 8.41036ZM19.619 8.54451C19.304 8.51302 19.0901 8.49142 18.9311 8.46589C18.7679 8.4397 18.7177 8.41683 18.7063 8.41036L18.213 9.28024C18.3853 9.3779 18.5813 9.42254 18.7726 9.45325C18.9681 9.48462 19.2171 9.50931 19.5195 9.53955L19.619 8.54451ZM20.3785 8.68079C20.1633 8.59394 19.9117 8.57378 19.619 8.54451L19.5195 9.53955C19.8796 9.57557 19.9545 9.58806 20.0043 9.60814L20.3785 8.68079ZM21.2572 9.65173C21.1285 9.21057 20.8047 8.85275 20.3785 8.68079L20.0043 9.60814C20.1464 9.66546 20.2543 9.78473 20.2972 9.93179L21.2572 9.65173ZM21.3172 10.4211C21.3172 10.1269 21.3222 9.87454 21.2572 9.65173L20.2972 9.93178C20.3122 9.98331 20.3172 10.0591 20.3172 10.4211H21.3172ZM21.3172 11.5794V10.4211H20.3172V11.5794H21.3172ZM21.2572 12.3485C21.3222 12.1257 21.3172 11.8735 21.3172 11.5794H20.3172C20.3172 11.9412 20.3122 12.017 20.2972 12.0685L21.2572 12.3485ZM20.3784 13.3196C20.8046 13.1476 21.1285 12.7897 21.2572 12.3485L20.2972 12.0685C20.2543 12.2156 20.1464 12.3349 20.0043 12.3922L20.3784 13.3196ZM19.619 13.4558C19.9117 13.4265 20.1632 13.4064 20.3784 13.3196L20.0043 12.3922C19.9545 12.4123 19.8796 12.4248 19.5195 12.4608L19.619 13.4558ZM18.7067 13.5899C18.7181 13.5834 18.7683 13.5606 18.9314 13.5344C19.0904 13.5089 19.3042 13.4873 19.619 13.4558L19.5195 12.4608C19.2173 12.491 18.9684 12.5157 18.773 12.547C18.5817 12.5777 18.3858 12.6223 18.2136 12.7199L18.7067 13.5899ZM18.4713 14.1581C18.4102 13.9372 18.5073 13.7029 18.7067 13.5899L18.2136 12.7199C17.6153 13.0591 17.3242 13.7617 17.5075 14.4246L18.4713 14.1581ZM19.0216 14.898C18.8213 14.6532 18.6854 14.4867 18.591 14.3562C18.4941 14.2224 18.4748 14.1708 18.4713 14.1581L17.5075 14.4246C17.5602 14.6154 17.6672 14.7854 17.7808 14.9424C17.8968 15.1027 18.0553 15.2962 18.2476 15.5312L19.0216 14.898ZM18.9882 14.8611L18.9882 14.8611L18.2811 15.5682L18.2811 15.5682L18.9882 14.8611ZM19.4621 15.5311C19.3713 15.3176 19.2078 15.1256 19.0216 14.898L18.2476 15.5312C18.4767 15.8113 18.5208 15.873 18.5418 15.9224L19.4621 15.5311ZM19.3969 16.8394C19.6179 16.4363 19.642 15.9542 19.4621 15.5311L18.5418 15.9224C18.6018 16.0634 18.5938 16.2241 18.5201 16.3585L19.3969 16.8394ZM18.8955 17.4255C19.1035 17.2176 19.2853 17.0428 19.3969 16.8394L18.5201 16.3585C18.4943 16.4055 18.4443 16.4626 18.1884 16.7184L18.8955 17.4255ZM18.0764 18.2446L18.8955 17.4255L18.1884 16.7184L17.3693 17.5375L18.0764 18.2446ZM18.0764 18.2446L18.0764 18.2446L17.3693 17.5375L17.3693 17.5375L18.0764 18.2446ZM17.49 18.7461C17.6935 18.6346 17.8684 18.4526 18.0764 18.2446L17.3693 17.5375C17.1134 17.7935 17.0563 17.8435 17.0092 17.8693L17.49 18.7461ZM16.1821 18.8114C16.605 18.9911 17.0871 18.9671 17.49 18.7461L17.0092 17.8693C16.8749 17.943 16.7142 17.951 16.5732 17.8911L16.1821 18.8114ZM15.5487 18.3707C15.7764 18.557 15.9685 18.7206 16.1821 18.8114L16.5732 17.8911C16.5238 17.8701 16.4621 17.8259 16.1819 17.5967L15.5487 18.3707ZM15.5653 18.3837L15.5653 18.3837L16.1653 17.5837L16.1653 17.5837L15.5653 18.3837ZM14.8085 17.8202C14.8212 17.8237 14.8728 17.843 15.0067 17.9399C15.1372 18.0343 15.3037 18.1703 15.5487 18.3707L16.1819 17.5967C15.9468 17.4043 15.7532 17.2457 15.5928 17.1297C15.4358 17.0161 15.2657 16.9091 15.0748 16.8563L14.8085 17.8202ZM14.2404 18.0555C14.3534 17.8562 14.5876 17.7592 14.8085 17.8202L15.0748 16.8563C14.4121 16.6732 13.7097 16.9642 13.3705 17.5623L14.2404 18.0555ZM14.1062 18.9684C14.1377 18.6534 14.1593 18.4395 14.1849 18.2804C14.2111 18.1171 14.2339 18.067 14.2404 18.0555L13.3705 17.5623C13.2728 17.7345 13.2282 17.9305 13.1975 18.1219C13.1661 18.3174 13.1414 18.5665 13.1112 18.8689L14.1062 18.9684ZM13.9699 19.7282C14.0568 19.5129 14.0769 19.2613 14.1062 18.9684L13.1112 18.8689C13.0752 19.2292 13.0627 19.3042 13.0426 19.354L13.9699 19.7282ZM12.9991 20.6068C13.4402 20.4781 13.7979 20.1543 13.9699 19.7282L13.0426 19.354C12.9852 19.496 12.866 19.6039 12.719 19.6468L12.9991 20.6068ZM12.2295 20.6668C12.5238 20.6668 12.7762 20.6718 12.9991 20.6068L12.719 19.6468C12.6674 19.6618 12.5916 19.6668 12.2295 19.6668V20.6668ZM11.0714 20.6668H12.2295V19.6668H11.0714V20.6668ZM10.3021 20.6068C10.5249 20.6718 10.7773 20.6668 11.0714 20.6668V19.6668C10.7095 19.6668 10.6337 19.6619 10.5822 19.6468L10.3021 20.6068ZM9.33118 19.7281C9.50314 20.1543 9.86096 20.4781 10.3021 20.6068L10.5822 19.6468C10.4351 19.6039 10.3159 19.496 10.2585 19.3539L9.33118 19.7281ZM9.1949 18.9686C9.22417 19.2613 9.24433 19.5129 9.33118 19.7281L10.2585 19.3539C10.2384 19.3041 10.226 19.2293 10.1899 18.8691L9.1949 18.9686ZM9.06074 18.0559C9.06722 18.0673 9.09009 18.1175 9.11628 18.2807C9.14181 18.4398 9.16341 18.6537 9.1949 18.9686L10.1899 18.8691C10.1597 18.5667 10.135 18.3177 10.1036 18.1222C10.0729 17.9309 10.0283 17.7349 9.93063 17.5626L9.06074 18.0559ZM8.49265 17.8206C8.71356 17.7595 8.94769 17.8565 9.06074 18.0559L9.93063 17.5626C9.59147 16.9645 8.88908 16.6736 8.22633 16.8567L8.49265 17.8206ZM7.75241 18.3711C7.99736 18.1707 8.16389 18.0347 8.29443 17.9403C8.42834 17.8434 8.47998 17.8241 8.49265 17.8206L8.22633 16.8567C8.03548 16.9094 7.86533 17.0164 7.7083 17.13C7.54791 17.2461 7.35434 17.4047 7.11917 17.5971L7.75241 18.3711ZM7.73578 18.3841L7.73579 18.3841L7.13579 17.5841L7.13578 17.5841L7.73578 18.3841ZM7.11897 18.8118C7.33257 18.721 7.5247 18.5574 7.7524 18.3711L7.11916 17.5971C6.83901 17.8264 6.77722 17.8705 6.72782 17.8915L7.11897 18.8118ZM5.81109 18.7466C6.21404 18.9675 6.69603 18.9916 7.11896 18.8118L6.72782 17.8915C6.58684 17.9514 6.42618 17.9434 6.29186 17.8697L5.81109 18.7466ZM5.22464 18.245C5.43267 18.4531 5.60757 18.635 5.81108 18.7466L6.29186 17.8697C6.2448 17.8439 6.1877 17.7939 5.93175 17.5379L5.22464 18.245ZM4.40565 17.426L5.22464 18.245L5.93175 17.5379L5.11276 16.7189L4.40565 17.426ZM3.90411 16.8396C4.0157 17.0431 4.19763 17.218 4.40565 17.426L5.11276 16.7189C4.85681 16.463 4.80676 16.4059 4.78095 16.3588L3.90411 16.8396ZM3.83888 15.5317C3.65913 15.9547 3.68317 16.4367 3.90411 16.8396L4.78095 16.3588C4.7073 16.2245 4.69929 16.0638 4.75921 15.9229L3.83888 15.5317ZM4.27959 14.8983C4.09329 15.126 3.92966 15.3181 3.83888 15.5317L4.75921 15.9229C4.7802 15.8735 4.82433 15.8117 5.05354 15.5315L4.27959 14.8983ZM4.83008 14.1581C4.82658 14.1707 4.80727 14.2224 4.7104 14.3563C4.61597 14.4868 4.48 14.6533 4.27959 14.8983L5.05354 15.5315C5.24595 15.2964 5.40459 15.1028 5.52062 14.9424C5.63421 14.7854 5.74122 14.6152 5.79396 14.4244L4.83008 14.1581ZM4.59476 13.59C4.79414 13.703 4.89112 13.9372 4.83008 14.1581L5.79396 14.4244C5.97709 13.7616 5.68614 13.0592 5.088 12.7201L4.59476 13.59ZM3.68211 13.4558C3.99702 13.4873 4.21091 13.5089 4.36998 13.5344C4.53316 13.5606 4.58333 13.5835 4.59476 13.59L5.088 12.7201C4.91577 12.6224 4.71979 12.5778 4.52844 12.5471C4.33298 12.5157 4.08394 12.491 3.78162 12.4608L3.68211 13.4558ZM2.92262 13.3195C3.13785 13.4064 3.3894 13.4265 3.68211 13.4558L3.78162 12.4608C3.42146 12.4248 3.34657 12.4123 3.2968 12.3922L2.92262 13.3195ZM2.04391 12.3486C2.1726 12.7898 2.49644 13.1476 2.92262 13.3195L3.2968 12.3922C3.15474 12.3349 3.04679 12.2156 3.00389 12.0685L2.04391 12.3486ZM1.98389 11.5793C1.98389 11.8735 1.97891 12.1258 2.04391 12.3486L3.00389 12.0685C2.98886 12.017 2.98389 11.9412 2.98389 11.5793H1.98389ZM1.98389 10.4211L1.98389 11.5793H2.98389L2.98389 10.4211H1.98389ZM2.04394 9.65162C1.97891 9.87449 1.98389 10.1269 1.98389 10.4211H2.98389C2.98389 10.0591 2.98887 9.98329 3.00391 9.93175L2.04394 9.65162ZM2.9225 8.68083C2.49642 8.85279 2.17266 9.21055 2.04394 9.65162L3.00391 9.93175C3.04681 9.78473 3.15473 9.66547 3.29676 9.60815L2.9225 8.68083ZM3.68222 8.5445C3.38941 8.57378 3.13779 8.59394 2.9225 8.68083L3.29676 9.60815C3.34654 9.58806 3.42145 9.57557 3.78173 9.53954L3.68222 8.5445ZM3.73198 8.54202H3.73197V9.54202H3.73198V8.54202ZM4.59516 8.4103C4.58373 8.41678 4.53355 8.43965 4.37032 8.46585C4.2112 8.49139 3.99724 8.513 3.68223 8.5445L3.78173 9.53954C4.08415 9.5093 4.33327 9.4846 4.52879 9.45322C4.72021 9.42249 4.91624 9.37783 5.08852 9.28012L4.59516 8.4103ZM4.83044 7.84228C4.89144 8.06316 4.79448 8.29724 4.59516 8.4103L5.08852 9.28012C5.68648 8.94096 5.97736 8.23873 5.79435 7.57608L4.83044 7.84228ZM4.27975 7.10178C4.48023 7.34682 4.61626 7.51341 4.71073 7.644C4.80763 7.77796 4.82694 7.82962 4.83044 7.84228L5.79435 7.57608C5.74163 7.38516 5.63458 7.21496 5.52095 7.05788C5.40488 6.89743 5.24618 6.70379 5.0537 6.46854L4.27975 7.10178ZM3.83885 6.46803C3.92965 6.68175 4.09336 6.87398 4.27975 7.10178L5.0537 6.46854C4.82437 6.18825 4.78022 6.12642 4.75923 6.077L3.83885 6.46803ZM3.90406 5.16048C3.68323 5.56334 3.6592 6.04519 3.83885 6.46804L4.75923 6.077C4.69934 5.93606 4.70735 5.77544 4.78096 5.64115L3.90406 5.16048ZM4.40581 4.57377C4.19769 4.78189 4.01568 4.95686 3.90406 5.16048L4.78096 5.64115C4.80677 5.59406 4.85685 5.53695 5.11291 5.28088L4.40581 4.57377ZM5.22468 3.7549L4.40581 4.57377L5.11291 5.28088L5.93179 4.462L5.22468 3.7549ZM5.81113 3.25334C5.60761 3.36493 5.43271 3.54687 5.22468 3.7549L5.93179 4.462C6.18775 4.20605 6.24484 4.15599 6.2919 4.13019L5.81113 3.25334ZM7.119 3.18811C6.69607 3.00836 6.21408 3.0324 5.81113 3.25334L6.2919 4.13019C6.42622 4.05654 6.58688 4.04853 6.72786 4.10844L7.119 3.18811ZM7.75252 3.62888C7.52478 3.44255 7.33262 3.2789 7.119 3.18811L6.72786 4.10844C6.77726 4.12944 6.83907 4.17358 7.11928 4.40284L7.75252 3.62888ZM8.49261 4.17931C8.47996 4.17582 8.42834 4.15651 8.29444 4.05964C8.16393 3.96522 7.99743 3.82926 7.75252 3.62888L7.11928 4.40284C7.35441 4.59522 7.54793 4.75383 7.70829 4.86984C7.86527 4.98341 8.03537 5.09041 8.22614 5.14316L8.49261 4.17931ZM9.06082 3.94395C8.94777 4.14339 8.71357 4.2404 8.49261 4.17931L8.22614 5.14316C8.88904 5.32642 9.59164 5.03539 9.93078 4.43707L9.06082 3.94395ZM9.19491 3.03161C9.16343 3.34641 9.14184 3.56023 9.11632 3.71925C9.09015 3.88238 9.0673 3.93253 9.06082 3.94395L9.93078 4.43707C10.0284 4.26489 10.073 4.06897 10.1037 3.87769C10.135 3.68229 10.1597 3.43334 10.19 3.13111L9.19491 3.03161ZM9.33112 2.27236C9.24433 2.48753 9.22418 2.73899 9.19491 3.03161L10.19 3.13111C10.226 2.77107 10.2384 2.69621 10.2585 2.64645L9.33112 2.27236ZM10.3023 1.39348C9.86099 1.52216 9.50307 1.84607 9.33112 2.27236L10.2585 2.64645C10.3158 2.50436 10.4351 2.39638 10.5822 2.35349L10.3023 1.39348ZM11.0713 1.3335C10.7772 1.3335 10.525 1.32852 10.3023 1.39348L10.5822 2.35349C10.6337 2.33847 10.7095 2.3335 11.0713 2.3335V1.3335ZM12.2297 1.3335H11.0713V2.3335H12.2297V1.3335ZM12.999 1.39352C12.7762 1.32852 12.5239 1.3335 12.2297 1.3335V2.3335C12.5916 2.3335 12.6674 2.33847 12.7189 2.3535L12.999 1.39352ZM13.9699 2.27223C13.798 1.84605 13.4401 1.52221 12.999 1.39352L12.7189 2.3535C12.866 2.3964 12.9853 2.50435 13.0426 2.64641L13.9699 2.27223ZM14.8172 11.0002C14.8172 12.7491 13.3995 14.1668 11.6506 14.1668V15.1668C13.9517 15.1668 15.8172 13.3013 15.8172 11.0002H14.8172ZM11.6506 7.8335C13.3995 7.8335 14.8172 9.25126 14.8172 11.0002H15.8172C15.8172 8.69898 13.9517 6.8335 11.6506 6.8335V7.8335ZM8.48389 11.0002C8.48389 9.25126 9.90165 7.8335 11.6506 7.8335V6.8335C9.34937 6.8335 7.48389 8.69898 7.48389 11.0002H8.48389ZM11.6506 14.1668C9.90165 14.1668 8.48389 12.7491 8.48389 11.0002H7.48389C7.48389 13.3013 9.34937 15.1668 11.6506 15.1668V14.1668Z" fill="white"/>
</svg>
