<svg width="28" height="28" viewBox="0 0 28 28" fill="none" xmlns="http://www.w3.org/2000/svg">
<path d="M4 11.5C4 9.60025 4.00106 8.22573 4.14199 7.17754C4.28098 6.14373 4.54772 5.50253 5.02513 5.02513C5.50253 4.54772 6.14373 4.28098 7.17754 4.14199C8.22573 4.00106 9.60025 4 11.5 4H16.5C18.3998 4 19.7743 4.00106 20.8225 4.14199C21.8563 4.28098 22.4975 4.54772 22.9749 5.02513C23.4523 5.50253 23.719 6.14373 23.858 7.17754C23.9989 8.22573 24 9.60025 24 11.5V16.5C24 18.3998 23.9989 19.7743 23.858 20.8225C23.719 21.8563 23.4523 22.4975 22.9749 22.9749C22.4975 23.4523 21.8563 23.719 20.8225 23.858C19.7743 23.9989 18.3998 24 16.5 24H11.5C9.60025 24 8.22573 23.9989 7.17754 23.858C6.14373 23.719 5.50253 23.4523 5.02513 22.9749C4.54772 22.4975 4.28098 21.8563 4.14199 20.8225C4.00106 19.7743 4 18.3998 4 16.5V11.5Z" stroke="white"/>
<path d="M14 9.33325L14 18.6666" stroke="white" stroke-linejoin="round"/>
<path d="M18.6666 14L9.33329 14" stroke="white" stroke-linejoin="round"/>
</svg>
