<svg width="11" height="18" viewBox="0 0 11 18" fill="none" xmlns="http://www.w3.org/2000/svg">
<path d="M3.61768 7.64624H5.27197C5.80192 7.64624 6.23877 7.55672 6.58252 7.37769C6.92627 7.19149 7.1805 6.93368 7.34521 6.60425C7.51709 6.26766 7.60303 5.87736 7.60303 5.43335C7.60303 5.03231 7.52425 4.67782 7.3667 4.36987C7.21631 4.05477 6.98356 3.81128 6.66846 3.6394C6.35335 3.46037 5.95589 3.37085 5.47607 3.37085C5.09652 3.37085 4.74561 3.44604 4.42334 3.59644C4.10107 3.74683 3.84326 3.95809 3.6499 4.23022C3.45654 4.50236 3.35986 4.83179 3.35986 5.21851H0.255371C0.255371 4.35913 0.484538 3.61076 0.942871 2.97339C1.40837 2.33602 2.03141 1.8383 2.81201 1.48022C3.59261 1.12215 4.45199 0.943115 5.39014 0.943115C6.45003 0.943115 7.37744 1.11499 8.17236 1.45874C8.96729 1.79533 9.58675 2.29305 10.0308 2.9519C10.4748 3.61076 10.6968 4.42716 10.6968 5.40112C10.6968 5.89526 10.5822 6.37508 10.353 6.84058C10.1239 7.29891 9.79443 7.71427 9.36475 8.08667C8.94222 8.4519 8.4266 8.74552 7.81787 8.96753C7.20915 9.18237 6.52523 9.28979 5.76611 9.28979H3.61768V7.64624ZM3.61768 9.99878V8.39819H5.76611C6.61833 8.39819 7.3667 8.49487 8.01123 8.68823C8.65576 8.88159 9.19645 9.16089 9.6333 9.52612C10.0701 9.8842 10.3996 10.3103 10.6216 10.8044C10.8436 11.2914 10.9546 11.8321 10.9546 12.4265C10.9546 13.157 10.8149 13.8087 10.5356 14.3816C10.2563 14.9473 9.86247 15.4272 9.354 15.821C8.8527 16.2149 8.26546 16.5157 7.59229 16.7234C6.91911 16.9239 6.18506 17.0242 5.39014 17.0242C4.73128 17.0242 4.08317 16.9347 3.4458 16.7556C2.81559 16.5694 2.24268 16.2937 1.72705 15.9285C1.21859 15.5561 0.810384 15.0906 0.502441 14.532C0.20166 13.9662 0.0512695 13.2966 0.0512695 12.5232H3.15576C3.15576 12.9242 3.25602 13.2823 3.45654 13.5974C3.65706 13.9125 3.93278 14.1596 4.28369 14.3386C4.64176 14.5177 5.03923 14.6072 5.47607 14.6072C5.97021 14.6072 6.39274 14.5177 6.74365 14.3386C7.10173 14.1524 7.37386 13.8946 7.56006 13.5652C7.75342 13.2286 7.8501 12.8383 7.8501 12.3943C7.8501 11.8214 7.74626 11.363 7.53857 11.0193C7.33089 10.6684 7.03369 10.4106 6.64697 10.2458C6.26025 10.0811 5.80192 9.99878 5.27197 9.99878H3.61768Z" fill="white"/>
</svg>
