<svg width="24" height="24" viewBox="0 0 24 24" fill="none" xmlns="http://www.w3.org/2000/svg">
<path d="M3.50349 20.1876C5.58105 22.203 8.40281 23.4435 11.5037 23.4435C12.806 23.4435 14.0773 23.2263 15.2867 22.8234C15.5968 22.6994 15.7829 22.3583 15.6587 22.0482C15.5348 21.738 15.1937 21.552 14.8835 21.6761C13.7981 22.0482 12.6818 22.2342 11.5036 22.2342C8.86782 22.2342 6.48034 21.2418 4.65079 19.6295C5.33297 18.4823 6.3563 17.4899 7.53445 16.7147C8.24759 17.0867 9.95311 17.8619 11.2866 17.8619C12.9609 17.8619 15.2866 16.5905 15.3798 16.5287C15.69 16.3736 15.783 15.9706 15.6279 15.6914C15.4728 15.3812 15.0699 15.2882 14.7906 15.4433C14.2014 15.7535 12.434 16.6217 11.3177 16.6217C10.2014 16.6217 8.43406 15.7844 7.84484 15.4433C7.65883 15.3503 7.41074 15.3503 7.22473 15.4433C5.82941 16.2806 4.65104 17.3969 3.8137 18.6992C2.23233 16.9008 1.2709 14.5442 1.2709 11.9394C1.2709 6.26488 5.89121 1.67564 11.5347 1.67564C17.1782 1.67542 21.7674 6.23365 21.7674 11.9084C21.7674 12.2495 22.0465 12.5285 22.3876 12.5285C22.7286 12.5285 23.0077 12.2495 23.0077 11.9084C23.0077 5.55169 17.8293 0.404297 11.5036 0.404297C5.1784 0.404297 0 5.55174 0 11.9084C0 15.1023 1.30235 17.9861 3.41103 20.0636C3.41082 20.0945 3.47289 20.1566 3.50383 20.1876H3.50349Z" fill="white"/>
<path d="M20.2173 12.8379C18.4809 12.8379 17.0544 14.2644 17.0544 16.0008V16.5588H17.0234C16.6823 16.5588 16.4033 16.8379 16.4033 17.179V22.5124C16.4033 22.8535 16.6823 23.1325 17.0234 23.1325H23.3801C23.7213 23.1325 24.0003 22.8535 24.0003 22.5124V17.148C24.0003 16.8069 23.7212 16.5279 23.3801 16.5279H23.3492V15.9698C23.3492 14.2641 21.9539 12.8379 20.2173 12.8379ZM18.2948 16.0008C18.2948 14.9466 19.163 14.0783 20.2173 14.0783C21.2715 14.0783 22.1397 14.9466 22.1397 16.0008V16.5588H18.2948V16.0008ZM22.7601 21.8924H17.6438V17.7683H22.7601V21.8924Z" fill="white"/>
<circle cx="11.5" cy="9.9043" r="4" stroke="white"/>
</svg>
